  0
SECTION
  2
HEADER
  9
$ACADVER
  1
AC1024
  9
$ACADMAINTVER
 70
6
  9
$DWGCODEPAGE
  3
ANSI_1252
  9
$LASTSAVEDBY
  1
ezdxf
  9
$INSBASE
 10
0.0
 20
0.0
 30
0.0
  9
$EXTMIN
 10
1e+20
 20
1e+20
 30
1e+20
  9
$EXTMAX
 10
-1e+20
 20
-1e+20
 30
-1e+20
  9
$LIMMIN
 10
0.0
 20
0.0
  9
$LIMMAX
 10
420.0
 20
297.0
  9
$ORTHOMODE
 70
0
  9
$REGENMODE
 70
1
  9
$FILLMODE
 70
1
  9
$QTEXTMODE
 70
0
  9
$MIRRTEXT
 70
1
  9
$LTSCALE
 40
1.0
  9
$ATTMODE
 70
1
  9
$TEXTSIZE
 40
2.5
  9
$TRACEWID
 40
1.0
  9
$TEXTSTYLE
  7
OpenSans
  9
$CLAYER
  8
0
  9
$CELTYPE
  6
ByLayer
  9
$CECOLOR
 62
256
  9
$CELTSCALE
 40
1.0
  9
$DISPSILH
 70
0
  9
$DIMSCALE
 40
1.0
  9
$DIMASZ
 40
0.175
  9
$DIMEXO
 40
0.125
  9
$DIMDLI
 40
3.75
  9
$DIMRND
 40
0.0
  9
$DIMDLE
 40
0.0
  9
$DIMEXE
 40
0.375
  9
$DIMTP
 40
0.0
  9
$DIMTM
 40
0.0
  9
$DIMTXT
 40
0.25
  9
$DIMCEN
 40
2.5
  9
$DIMTSZ
 40
0.0
  9
$DIMTOL
 70
0
  9
$DIMLIM
 70
0
  9
$DIMTIH
 70
0
  9
$DIMTOH
 70
0
  9
$DIMSE1
 70
0
  9
$DIMSE2
 70
0
  9
$DIMTAD
 70
1
  9
$DIMZIN
 70
12
  9
$DIMBLK
  1
ARCHTICK
  9
$DIMASO
 70
1
  9
$DIMSHO
 70
1
  9
$DIMPOST
  1

  9
$DIMAPOST
  1

  9
$DIMALT
 70
0
  9
$DIMALTD
 70
3
  9
$DIMALTF
 40
0.03937007874
  9
$DIMLFAC
 40
100.0
  9
$DIMTOFL
 70
1
  9
$DIMTVP
 40
0.0
  9
$DIMTIX
 70
0
  9
$DIMSOXD
 70
0
  9
$DIMSAH
 70
0
  9
$DIMBLK1
  1

  9
$DIMBLK2
  1

  9
$DIMSTYLE
  2
EZDXF
  9
$DIMCLRD
 70
0
  9
$DIMCLRE
 70
0
  9
$DIMCLRT
 70
0
  9
$DIMTFAC
 40
0.5
  9
$DIMGAP
 40
0.1
  9
$DIMJUST
 70
0
  9
$DIMSD1
 70
0
  9
$DIMSD2
 70
0
  9
$DIMTOLJ
 70
0
  9
$DIMTZIN
 70
8
  9
$DIMALTZ
 70
0
  9
$DIMALTTZ
 70
0
  9
$DIMUPT
 70
1
  9
$DIMDEC
 70
2
  9
$DIMTDEC
 70
2
  9
$DIMALTU
 70
2
  9
$DIMALTTD
 70
3
  9
$DIMTXSTY
  7
OpenSansCondensed-Light
  9
$DIMAUNIT
 70
0
  9
$DIMADEC
 70
2
  9
$DIMALTRND
 40
0.0
  9
$DIMAZIN
 70
3
  9
$DIMDSEP
 70
46
  9
$DIMATFIT
 70
3
  9
$DIMFRAC
 70
0
  9
$DIMLDRBLK
  1

  9
$DIMLUNIT
 70
2
  9
$DIMLWD
 70
-2
  9
$DIMLWE
 70
-2
  9
$DIMTMOVE
 70
2
  9
$DIMFXL
 40
1.0
  9
$DIMFXLON
 70
0
  9
$DIMJOGANG
 40
0.785398163397
  9
$DIMTFILL
 70
0
  9
$DIMTFILLCLR
 70
0
  9
$DIMARCSYM
 70
0
  9
$DIMLTYPE
  6

  9
$DIMLTEX1
  6

  9
$DIMLTEX2
  6

  9
$DIMTXTDIRECTION
 70
0
  9
$LUNITS
 70
2
  9
$LUPREC
 70
4
  9
$SKETCHINC
 40
1.0
  9
$FILLETRAD
 40
10.0
  9
$AUNITS
 70
0
  9
$AUPREC
 70
2
  9
$MENU
  1
.
  9
$ELEVATION
 40
0.0
  9
$PELEVATION
 40
0.0
  9
$THICKNESS
 40
0.0
  9
$LIMCHECK
 70
0
  9
$CHAMFERA
 40
0.0
  9
$CHAMFERB
 40
0.0
  9
$CHAMFERC
 40
0.0
  9
$CHAMFERD
 40
0.0
  9
$SKPOLY
 70
0
  9
$TDCREATE
 40
2461295.948576389
  9
$TDUCREATE
 40
2458532.153996898
  9
$TDUPDATE
 40
2461295.948576389
  9
$TDUUPDATE
 40
2458532.1544311
  9
$TDINDWG
 40
0.0
  9
$TDUSRTIMER
 40
0.0
  9
$USRTIMER
 70
1
  9
$ANGBASE
 50
0.0
  9
$ANGDIR
 70
0
  9
$PDMODE
 70
0
  9
$PDSIZE
 40
0.0
  9
$PLINEWID
 40
0.0
  9
$SPLFRAME
 70
0
  9
$SPLINETYPE
 70
6
  9
$SPLINESEGS
 70
8
  9
$HANDSEED
  5
17A
  9
$SURFTAB1
 70
6
  9
$SURFTAB2
 70
6
  9
$SURFTYPE
 70
6
  9
$SURFU
 70
6
  9
$SURFV
 70
6
  9
$UCSBASE
  2

  9
$UCSNAME
  2

  9
$UCSORG
 10
0.0
 20
0.0
 30
0.0
  9
$UCSXDIR
 10
1.0
 20
0.0
 30
0.0
  9
$UCSYDIR
 10
0.0
 20
1.0
 30
0.0
  9
$UCSORTHOREF
  2

  9
$UCSORTHOVIEW
 70
0
  9
$UCSORGTOP
 10
0.0
 20
0.0
 30
0.0
  9
$UCSORGBOTTOM
 10
0.0
 20
0.0
 30
0.0
  9
$UCSORGLEFT
 10
0.0
 20
0.0
 30
0.0
  9
$UCSORGRIGHT
 10
0.0
 20
0.0
 30
0.0
  9
$UCSORGFRONT
 10
0.0
 20
0.0
 30
0.0
  9
$UCSORGBACK
 10
0.0
 20
0.0
 30
0.0
  9
$PUCSBASE
  2

  9
$PUCSNAME
  2

  9
$PUCSORG
 10
0.0
 20
0.0
 30
0.0
  9
$PUCSXDIR
 10
1.0
 20
0.0
 30
0.0
  9
$PUCSYDIR
 10
0.0
 20
1.0
 30
0.0
  9
$PUCSORTHOREF
  2

  9
$PUCSORTHOVIEW
 70
0
  9
$PUCSORGTOP
 10
0.0
 20
0.0
 30
0.0
  9
$PUCSORGBOTTOM
 10
0.0
 20
0.0
 30
0.0
  9
$PUCSORGLEFT
 10
0.0
 20
0.0
 30
0.0
  9
$PUCSORGRIGHT
 10
0.0
 20
0.0
 30
0.0
  9
$PUCSORGFRONT
 10
0.0
 20
0.0
 30
0.0
  9
$PUCSORGBACK
 10
0.0
 20
0.0
 30
0.0
  9
$USERI1
 70
0
  9
$USERI2
 70
0
  9
$USERI3
 70
0
  9
$USERI4
 70
0
  9
$USERI5
 70
0
  9
$USERR1
 40
0.0
  9
$USERR2
 40
0.0
  9
$USERR3
 40
0.0
  9
$USERR4
 40
0.0
  9
$USERR5
 40
0.0
  9
$WORLDVIEW
 70
1
  9
$SHADEDGE
 70
3
  9
$SHADEDIF
 70
70
  9
$TILEMODE
 70
1
  9
$MAXACTVP
 70
64
  9
$PINSBASE
 10
0.0
 20
0.0
 30
0.0
  9
$PLIMCHECK
 70
0
  9
$PEXTMIN
 10
1e+20
 20
1e+20
 30
1e+20
  9
$PEXTMAX
 10
-1e+20
 20
-1e+20
 30
-1e+20
  9
$PLIMMIN
 10
0.0
 20
0.0
  9
$PLIMMAX
 10
420.0
 20
297.0
  9
$UNITMODE
 70
0
  9
$VISRETAIN
 70
1
  9
$PLINEGEN
 70
0
  9
$PSLTSCALE
 70
1
  9
$TREEDEPTH
 70
3020
  9
$CMLSTYLE
  2
Standard
  9
$CMLJUST
 70
0
  9
$CMLSCALE
 40
20.0
  9
$PROXYGRAPHICS
 70
1
  9
$MEASUREMENT
 70
1
  9
$CELWEIGHT
370
-1
  9
$ENDCAPS
280
0
  9
$JOINSTYLE
280
0
  9
$LWDISPLAY
290
0
  9
$INSUNITS
 70
4
  9
$HYPERLINKBASE
  1

  9
$STYLESHEET
  1

  9
$XEDIT
290
1
  9
$CEPSNTYPE
380
0
  9
$PSTYLEMODE
290
1
  9
$FINGERPRINTGUID
  2
{E39F619A-25C8-4FB2-B413-502DF8A0467F}
  9
$VERSIONGUID
  2
{87822938-B564-4C55-BD72-5D558FC7C69C}
  9
$EXTNAMES
290
1
  9
$PSVPSCALE
 40
0.0
  9
$OLESTARTUP
290
0
  9
$SORTENTS
280
127
  9
$INDEXCTL
280
0
  9
$HIDETEXT
280
1
  9
$XCLIPFRAME
280
1
  9
$HALOGAP
280
0
  9
$OBSCOLOR
 70
257
  9
$OBSLTYPE
280
0
  9
$INTERSECTIONDISPLAY
280
0
  9
$INTERSECTIONCOLOR
 70
257
  9
$DIMASSOC
280
2
  9
$PROJECTNAME
  1

  9
$CAMERADISPLAY
290
0
  9
$LENSLENGTH
 40
50.0
  9
$CAMERAHEIGHT
 40
0.0
  9
$STEPSPERSEC
 40
24.0
  9
$STEPSIZE
 40
100.0
  9
$3DDWFPREC
 40
2.0
  9
$PSOLWIDTH
 40
0.005
  9
$PSOLHEIGHT
 40
0.08
  9
$LOFTANG1
 40
1.570796326795
  9
$LOFTANG2
 40
1.570796326795
  9
$LOFTMAG1
 40
0.0
  9
$LOFTMAG2
 40
0.0
  9
$LOFTPARAM
 70
7
  9
$LOFTNORMALS
280
1
  9
$LATITUDE
 40
37.795
  9
$LONGITUDE
 40
-122.394
  9
$NORTHDIRECTION
 40
0.0
  9
$TIMEZONE
 70
-8000
  9
$LIGHTGLYPHDISPLAY
280
1
  9
$TILEMODELIGHTSYNCH
280
1
  9
$CMATERIAL
347
20
  9
$SOLIDHIST
280
0
  9
$SHOWHIST
280
1
  9
$DWFFRAME
280
2
  9
$DGNFRAME
280
2
  9
$REALWORLDSCALE
290
1
  9
$INTERFERECOLOR
 62
256
  9
$CSHADOW
280
0
  9
$SHADOWPLANELOCATION
 40
0.0
  0
ENDSEC
  0
SECTION
  2
CLASSES
  0
CLASS
  1
ACDBDICTIONARYWDFLT
  2
AcDbDictionaryWithDefault
  3
ObjectDBX Classes
 90
0
 91
0
280
0
281
0
  0
CLASS
  1
SUN
  2
AcDbSun
  3
SCENEOE
 90
1153
 91
0
280
0
281
0
  0
CLASS
  1
VISUALSTYLE
  2
AcDbVisualStyle
  3
ObjectDBX Classes
 90
4095
 91
0
280
0
281
0
  0
CLASS
  1
MATERIAL
  2
AcDbMaterial
  3
ObjectDBX Classes
 90
1153
 91
0
280
0
281
0
  0
CLASS
  1
SCALE
  2
AcDbScale
  3
ObjectDBX Classes
 90
1153
 91
0
280
0
281
0
  0
CLASS
  1
TABLESTYLE
  2
AcDbTableStyle
  3
ObjectDBX Classes
 90
4095
 91
0
280
0
281
0
  0
CLASS
  1
MLEADERSTYLE
  2
AcDbMLeaderStyle
  3
ACDB_MLEADERSTYLE_CLASS
 90
4095
 91
0
280
0
281
0
  0
CLASS
  1
DICTIONARYVAR
  2
AcDbDictionaryVar
  3
ObjectDBX Classes
 90
0
 91
0
280
0
281
0
  0
CLASS
  1
CELLSTYLEMAP
  2
AcDbCellStyleMap
  3
ObjectDBX Classes
 90
1152
 91
0
280
0
281
0
  0
CLASS
  1
MENTALRAYRENDERSETTINGS
  2
AcDbMentalRayRenderSettings
  3
SCENEOE
 90
1024
 91
0
280
0
281
0
  0
CLASS
  1
ACDBDETAILVIEWSTYLE
  2
AcDbDetailViewStyle
  3
ObjectDBX Classes
 90
1025
 91
0
280
0
281
0
  0
CLASS
  1
ACDBSECTIONVIEWSTYLE
  2
AcDbSectionViewStyle
  3
ObjectDBX Classes
 90
1025
 91
0
280
0
281
0
  0
CLASS
  1
RASTERVARIABLES
  2
AcDbRasterVariables
  3
ISM
 90
0
 91
0
280
0
281
0
  0
CLASS
  1
LAYOUT
  2
AcDbLayout
  3
ObjectDBX Classes
 90
0
 91
0
280
0
281
0
  0
CLASS
  1
ACDBPLACEHOLDER
  2
AcDbPlaceHolder
  3
ObjectDBX Classes
 90
0
 91
0
280
0
281
0
  0
ENDSEC
  0
SECTION
  2
TABLES
  0
TABLE
  2
VPORT
  5
8
330
0
100
AcDbSymbolTable
 70
1
  0
VPORT
  5
23
330
8
100
AcDbSymbolTableRecord
100
AcDbViewportTableRecord
  2
*Active
 70
0
 10
0.0
 20
0.0
 11
1.0
 21
1.0
 12
0.0
 22
0.0
 13
0.0
 23
0.0
 14
0.5
 24
0.5
 15
0.5
 25
0.5
 16
0.0
 26
0.0
 36
1.0
 17
0.0
 27
0.0
 37
0.0
 40
1000.0
 41
1.34
 42
50.0
 43
0.0
 44
0.0
 50
0.0
 51
0.0
 71
0
 72
1000
 73
1
 74
3
 75
0
 76
0
 77
0
 78
0
281
0
 65
0
146
0.0
  0
ENDTAB
  0
TABLE
  2
LTYPE
  5
2
330
0
100
AcDbSymbolTable
 70
21
  0
LTYPE
  5
24
330
2
100
AcDbSymbolTableRecord
100
AcDbLinetypeTableRecord
  2
ByBlock
 70
0
  3

 72
65
 73
0
 40
0.0
  0
LTYPE
  5
25
330
2
100
AcDbSymbolTableRecord
100
AcDbLinetypeTableRecord
  2
ByLayer
 70
0
  3

 72
65
 73
0
 40
0.0
  0
LTYPE
  5
26
330
2
100
AcDbSymbolTableRecord
100
AcDbLinetypeTableRecord
  2
Continuous
 70
0
  3

 72
65
 73
0
 40
0.0
  0
LTYPE
  5
2F
330
2
100
AcDbSymbolTableRecord
100
AcDbLinetypeTableRecord
  2
CENTER
 70
0
  3
Center ____ _ ____ _ ____ _ ____ _ ____ _ ____
 72
65
 73
4
 40
5.08
 49
3.175
 74
0
 49
-0.635
 74
0
 49
0.635
 74
0
 49
-0.635
 74
0
  0
LTYPE
  5
30
330
2
100
AcDbSymbolTableRecord
100
AcDbLinetypeTableRecord
  2
CENTERX2
 70
0
  3
Center (2x) ________  __  ________  __  ________
 72
65
 73
4
 40
8.89
 49
6.35
 74
0
 49
-0.635
 74
0
 49
1.27
 74
0
 49
-0.635
 74
0
  0
LTYPE
  5
31
330
2
100
AcDbSymbolTableRecord
100
AcDbLinetypeTableRecord
  2
CENTER2
 70
0
  3
Center (.5x) ____ _ ____ _ ____ _ ____ _ ____
 72
65
 73
4
 40
2.54
 49
1.587
 74
0
 49
-0.318
 74
0
 49
0.318
 74
0
 49
-0.318
 74
0
  0
LTYPE
  5
32
330
2
100
AcDbSymbolTableRecord
100
AcDbLinetypeTableRecord
  2
DASHED
 70
0
  3
Dashed __ __ __ __ __ __ __ __ __ __ __ __ __ _
 72
65
 73
2
 40
1.524
 49
1.27
 74
0
 49
-0.254
 74
0
  0
LTYPE
  5
33
330
2
100
AcDbSymbolTableRecord
100
AcDbLinetypeTableRecord
  2
DASHEDX2
 70
0
  3
Dashed (2x) ____  ____  ____  ____  ____  ____
 72
65
 73
2
 40
3.048
 49
2.54
 74
0
 49
-0.508
 74
0
  0
LTYPE
  5
34
330
2
100
AcDbSymbolTableRecord
100
AcDbLinetypeTableRecord
  2
DASHED2
 70
0
  3
Dashed (.5x) _ _ _ _ _ _ _ _ _ _ _ _ _ _
 72
65
 73
2
 40
0.762
 49
0.635
 74
0
 49
-0.127
 74
0
  0
LTYPE
  5
35
330
2
100
AcDbSymbolTableRecord
100
AcDbLinetypeTableRecord
  2
PHANTOM
 70
0
  3
Phantom ______  __  __  ______  __  __  ______
 72
65
 73
6
 40
6.35
 49
3.175
 74
0
 49
-0.635
 74
0
 49
0.635
 74
0
 49
-0.635
 74
0
 49
0.635
 74
0
 49
-0.635
 74
0
  0
LTYPE
  5
36
330
2
100
AcDbSymbolTableRecord
100
AcDbLinetypeTableRecord
  2
PHANTOMX2
 70
0
  3
Phantom (2x)____________    ____    ____    ____________
 72
65
 73
6
 40
10.795
 49
6.35
 74
0
 49
-0.635
 74
0
 49
1.27
 74
0
 49
-0.635
 74
0
 49
1.27
 74
0
 49
-0.635
 74
0
  0
LTYPE
  5
37
330
2
100
AcDbSymbolTableRecord
100
AcDbLinetypeTableRecord
  2
PHANTOM2
 70
0
  3
Phantom (.5x) ___ _ _ ___ _ _ ___ _ _ ___ _ _ ___
 72
65
 73
6
 40
3.175
 49
1.587
 74
0
 49
-0.318
 74
0
 49
0.318
 74
0
 49
-0.318
 74
0
 49
0.318
 74
0
 49
-0.318
 74
0
  0
LTYPE
  5
38
330
2
100
AcDbSymbolTableRecord
100
AcDbLinetypeTableRecord
  2
DASHDOT
 70
0
  3
Dash dot __ . __ . __ . __ . __ . __ . __ . __
 72
65
 73
4
 40
3.556
 49
2.54
 74
0
 49
-0.508
 74
0
 49
0.0
 74
0
 49
-0.508
 74
0
  0
LTYPE
  5
39
330
2
100
AcDbSymbolTableRecord
100
AcDbLinetypeTableRecord
  2
DASHDOTX2
 70
0
  3
Dash dot (2x) ____  .  ____  .  ____  .  ____
 72
65
 73
4
 40
6.096
 49
5.08
 74
0
 49
-0.508
 74
0
 49
0.0
 74
0
 49
-0.508
 74
0
  0
LTYPE
  5
3A
330
2
100
AcDbSymbolTableRecord
100
AcDbLinetypeTableRecord
  2
DASHDOT2
 70
0
  3
Dash dot (.5x) _ . _ . _ . _ . _ . _ . _ . _
 72
65
 73
4
 40
1.778
 49
1.27
 74
0
 49
-0.254
 74
0
 49
0.0
 74
0
 49
-0.254
 74
0
  0
LTYPE
  5
3B
330
2
100
AcDbSymbolTableRecord
100
AcDbLinetypeTableRecord
  2
DOT
 70
0
  3
Dot .  .  .  .  .  .  .  .  .  .  .  .  .  .  .  .
 72
65
 73
2
 40
0.508
 49
0.0
 74
0
 49
-0.508
 74
0
  0
LTYPE
  5
3C
330
2
100
AcDbSymbolTableRecord
100
AcDbLinetypeTableRecord
  2
DOTX2
 70
0
  3
Dot (2x) .    .    .    .    .    .    .    . 
 72
65
 73
2
 40
1.016
 49
0.0
 74
0
 49
-1.016
 74
0
  0
LTYPE
  5
3D
330
2
100
AcDbSymbolTableRecord
100
AcDbLinetypeTableRecord
  2
DOT2
 70
0
  3
Dot (.5) . . . . . . . . . . . . . . . . . . . 
 72
65
 73
2
 40
0.254
 49
0.0
 74
0
 49
-0.254
 74
0
  0
LTYPE
  5
3E
330
2
100
AcDbSymbolTableRecord
100
AcDbLinetypeTableRecord
  2
DIVIDE
 70
0
  3
Divide __ . . __ . . __ . . __ . . __ . . __
 72
65
 73
6
 40
4.064
 49
2.54
 74
0
 49
-0.508
 74
0
 49
0.0
 74
0
 49
-0.508
 74
0
 49
0.0
 74
0
 49
-0.508
 74
0
  0
LTYPE
  5
3F
330
2
100
AcDbSymbolTableRecord
100
AcDbLinetypeTableRecord
  2
DIVIDEX2
 70
0
  3
Divide (2x) ____  . .  ____  . .  ____  . .  ____
 72
65
 73
6
 40
6.604
 49
5.08
 74
0
 49
-0.508
 74
0
 49
0.0
 74
0
 49
-0.508
 74
0
 49
0.0
 74
0
 49
-0.508
 74
0
  0
LTYPE
  5
40
330
2
100
AcDbSymbolTableRecord
100
AcDbLinetypeTableRecord
  2
DIVIDE2
 70
0
  3
Divide(.5x) _ . _ . _ . _ . _ . _ . _ . _
 72
65
 73
6
 40
2.032
 49
1.27
 74
0
 49
-0.254
 74
0
 49
0.0
 74
0
 49
-0.254
 74
0
 49
0.0
 74
0
 49
-0.254
 74
0
  0
ENDTAB
  0
TABLE
  2
LAYER
  5
1
330
0
100
AcDbSymbolTable
 70
26
  0
LAYER
  5
27
330
1
100
AcDbSymbolTableRecord
100
AcDbLayerTableRecord
  2
0
 70
0
 62
7
  6
Continuous
370
-3
390
13
347
21
  0
LAYER
  5
28
330
1
100
AcDbSymbolTableRecord
100
AcDbLayerTableRecord
  2
Defpoints
 70
0
 62
7
  6
Continuous
290
0
370
-3
390
13
347
21
  0
LAYER
  5
8D
330
1
100
AcDbSymbolTableRecord
100
AcDbLayerTableRecord
  2
Okvir
 70
0
 62
3
  6
Continuous
370
-3
390
13
347
21
  0
LAYER
  5
8E
330
1
100
AcDbSymbolTableRecord
100
AcDbLayerTableRecord
  2
Tekst
 70
0
 62
253
  6
Continuous
370
-3
390
13
347
21
  0
LAYER
  5
8F
330
1
100
AcDbSymbolTableRecord
100
AcDbLayerTableRecord
  2
Kote
 70
0
 62
7
  6
Continuous
370
-3
390
13
347
21
  0
LAYER
  5
90
330
1
100
AcDbSymbolTableRecord
100
AcDbLayerTableRecord
  2
Kote blok
 70
0
 62
7
  6
Continuous
370
-3
390
13
347
21
  0
LAYER
  5
91
330
1
100
AcDbSymbolTableRecord
100
AcDbLayerTableRecord
  2
Objekat
 70
0
 62
6
  6
Continuous
370
-3
390
13
347
21
  0
LAYER
  5
92
330
1
100
AcDbSymbolTableRecord
100
AcDbLayerTableRecord
  2
Konstrukcija
 70
0
 62
5
  6
Continuous
370
-3
390
13
347
21
  0
LAYER
  5
93
330
1
100
AcDbSymbolTableRecord
100
AcDbLayerTableRecord
  2
Panel
 70
0
 62
110
  6
Continuous
370
-3
390
13
347
21
  0
LAYER
  5
94
330
1
100
AcDbSymbolTableRecord
100
AcDbLayerTableRecord
  2
Kabal
 70
0
 62
7
  6
Continuous
370
-3
390
13
347
21
  0
LAYER
  5
95
330
1
100
AcDbSymbolTableRecord
100
AcDbLayerTableRecord
  2
Osovina
 70
0
 62
6
  6
CENTER
370
-3
390
13
347
21
  0
LAYER
  5
96
330
1
100
AcDbSymbolTableRecord
100
AcDbLayerTableRecord
  2
Orijentacija
 70
0
 62
1
  6
Continuous
370
-3
390
13
347
21
  0
LAYER
  5
97
330
1
100
AcDbSymbolTableRecord
100
AcDbLayerTableRecord
  2
DEBELA
 70
0
 62
7
  6
Continuous
370
-3
390
13
347
21
  0
LAYER
  5
98
330
1
100
AcDbSymbolTableRecord
100
AcDbLayerTableRecord
  2
pozicije
 70
0
 62
7
  6
Continuous
370
-3
390
13
347
21
  0
LAYER
  5
99
330
1
100
AcDbSymbolTableRecord
100
AcDbLayerTableRecord
  2
Novi1
 70
0
 62
30
  6
Continuous
370
-3
390
13
347
21
  0
LAYER
  5
9A
330
1
100
AcDbSymbolTableRecord
100
AcDbLayerTableRecord
  2
plavi
 70
0
 62
5
  6
Continuous
370
-3
390
13
347
21
  0
LAYER
  5
9B
330
1
100
AcDbSymbolTableRecord
100
AcDbLayerTableRecord
  2
Temelj
 70
0
 62
32
  6
Continuous
370
-3
390
13
347
21
  0
LAYER
  5
9C
330
1
100
AcDbSymbolTableRecord
100
AcDbLayerTableRecord
  2
Uzemljenje
 70
0
 62
2
  6
DASHED
370
-3
390
13
347
21
  0
LAYER
  5
9D
330
1
100
AcDbSymbolTableRecord
100
AcDbLayerTableRecord
  2
Ograda
 70
0
 62
8
  6
Continuous
370
-3
390
13
347
21
  0
LAYER
  5
9E
330
1
100
AcDbSymbolTableRecord
100
AcDbLayerTableRecord
  2
Agregat
 70
0
 62
30
  6
Continuous
370
-3
390
13
347
21
  0
LAYER
  5
9F
330
1
100
AcDbSymbolTableRecord
100
AcDbLayerTableRecord
  2
Ventilacija
 70
0
 62
4
  6
Continuous
370
-3
390
13
347
21
  0
LAYER
  5
A0
330
1
100
AcDbSymbolTableRecord
100
AcDbLayerTableRecord
  2
Sema
 70
0
 62
7
  6
Continuous
370
-3
390
13
347
21
  0
LAYER
  5
A1
330
1
100
AcDbSymbolTableRecord
100
AcDbLayerTableRecord
  2
Legenda
 70
0
 62
7
  6
Continuous
370
-3
390
13
347
21
  0
LAYER
  5
A2
330
1
100
AcDbSymbolTableRecord
100
AcDbLayerTableRecord
  2
Izvod
 70
0
 62
253
  6
Continuous
370
-3
390
13
347
21
  0
LAYER
  5
A3
330
1
100
AcDbSymbolTableRecord
100
AcDbLayerTableRecord
  2
Kota_tekst
 70
0
 62
7
  6
Continuous
370
-3
390
13
347
21
  0
LAYER
  5
A4
330
1
100
AcDbSymbolTableRecord
100
AcDbLayerTableRecord
  2
Sakriveno
 70
0
 62
15
  6
Continuous
370
-3
390
13
347
21
  0
ENDTAB
  0
TABLE
  2
STYLE
  5
5
330
0
100
AcDbSymbolTable
 70
29
  0
STYLE
  5
29
330
5
100
AcDbSymbolTableRecord
100
AcDbTextStyleTableRecord
  2
Standard
 70
0
 40
0.0
 41
1.0
 50
0.0
 71
0
 42
2.5
  3
times.ttf
  4

  0
STYLE
  5
41
330
5
100
AcDbSymbolTableRecord
100
AcDbTextStyleTableRecord
  2
OpenSans-Light
 70
0
 40
0.0
 41
1.0
 50
0.0
 71
0
 42
2.5
  3
OpenSans-Light.ttf
  4

  0
STYLE
  5
42
330
5
100
AcDbSymbolTableRecord
100
AcDbTextStyleTableRecord
  2
OpenSans-Light-Italic
 70
0
 40
0.0
 41
1.0
 50
0.0
 71
0
 42
2.5
  3
OpenSans-LightItalic.ttf
  4

  0
STYLE
  5
43
330
5
100
AcDbSymbolTableRecord
100
AcDbTextStyleTableRecord
  2
OpenSans
 70
0
 40
0.0
 41
1.0
 50
0.0
 71
0
 42
2.5
  3
OpenSans-Regular.ttf
  4

  0
STYLE
  5
44
330
5
100
AcDbSymbolTableRecord
100
AcDbTextStyleTableRecord
  2
OpenSans-Italic
 70
0
 40
0.0
 41
1.0
 50
0.0
 71
0
 42
2.5
  3
OpenSans-Italic.ttf
  4

  0
STYLE
  5
45
330
5
100
AcDbSymbolTableRecord
100
AcDbTextStyleTableRecord
  2
OpenSans-SemiBold
 70
0
 40
0.0
 41
1.0
 50
0.0
 71
0
 42
2.5
  3
OpenSans-SemiBold.ttf
  4

  0
STYLE
  5
46
330
5
100
AcDbSymbolTableRecord
100
AcDbTextStyleTableRecord
  2
OpenSans-SemiBoldItalic
 70
0
 40
0.0
 41
1.0
 50
0.0
 71
0
 42
2.5
  3
OpenSans-SemiBoldItalic.ttf
  4

  0
STYLE
  5
47
330
5
100
AcDbSymbolTableRecord
100
AcDbTextStyleTableRecord
  2
OpenSans-Bold
 70
0
 40
0.0
 41
1.0
 50
0.0
 71
0
 42
2.5
  3
OpenSans-Bold.ttf
  4

  0
STYLE
  5
48
330
5
100
AcDbSymbolTableRecord
100
AcDbTextStyleTableRecord
  2
OpenSans-BoldItalic
 70
0
 40
0.0
 41
1.0
 50
0.0
 71
0
 42
2.5
  3
OpenSans-BoldItalic.ttf
  4

  0
STYLE
  5
49
330
5
100
AcDbSymbolTableRecord
100
AcDbTextStyleTableRecord
  2
OpenSans-ExtraBold
 70
0
 40
0.0
 41
1.0
 50
0.0
 71
0
 42
2.5
  3
OpenSans-ExtraBold.ttf
  4

  0
STYLE
  5
4A
330
5
100
AcDbSymbolTableRecord
100
AcDbTextStyleTableRecord
  2
OpenSans-ExtraBoldItalic
 70
0
 40
0.0
 41
1.0
 50
0.0
 71
0
 42
2.5
  3
OpenSans-ExtraBoldItalic.ttf
  4

  0
STYLE
  5
4B
330
5
100
AcDbSymbolTableRecord
100
AcDbTextStyleTableRecord
  2
OpenSansCondensed-Bold
 70
0
 40
0.0
 41
1.0
 50
0.0
 71
0
 42
2.5
  3
OpenSansCondensed-Bold.ttf
  4

  0
STYLE
  5
4C
330
5
100
AcDbSymbolTableRecord
100
AcDbTextStyleTableRecord
  2
OpenSansCondensed-Light
 70
0
 40
0.0
 41
1.0
 50
0.0
 71
0
 42
2.5
  3
OpenSansCondensed-Light.ttf
  4

  0
STYLE
  5
4D
330
5
100
AcDbSymbolTableRecord
100
AcDbTextStyleTableRecord
  2
OpenSansCondensed-Italic
 70
0
 40
0.0
 41
1.0
 50
0.0
 71
0
 42
2.5
  3
OpenSansCondensed-LightItalic.ttf
  4

  0
STYLE
  5
4E
330
5
100
AcDbSymbolTableRecord
100
AcDbTextStyleTableRecord
  2
LiberationSans
 70
0
 40
0.0
 41
1.0
 50
0.0
 71
0
 42
2.5
  3
LiberationSans-Regular.ttf
  4

  0
STYLE
  5
4F
330
5
100
AcDbSymbolTableRecord
100
AcDbTextStyleTableRecord
  2
LiberationSans-Bold
 70
0
 40
0.0
 41
1.0
 50
0.0
 71
0
 42
2.5
  3
LiberationSans-Bold.ttf
  4

  0
STYLE
  5
50
330
5
100
AcDbSymbolTableRecord
100
AcDbTextStyleTableRecord
  2
LiberationSans-BoldItalic
 70
0
 40
0.0
 41
1.0
 50
0.0
 71
0
 42
2.5
  3
LiberationSans-BoldItalic.ttf
  4

  0
STYLE
  5
51
330
5
100
AcDbSymbolTableRecord
100
AcDbTextStyleTableRecord
  2
LiberationSans-Italic
 70
0
 40
0.0
 41
1.0
 50
0.0
 71
0
 42
2.5
  3
LiberationSans-Italic.ttf
  4

  0
STYLE
  5
52
330
5
100
AcDbSymbolTableRecord
100
AcDbTextStyleTableRecord
  2
LiberationSerif
 70
0
 40
0.0
 41
1.0
 50
0.0
 71
0
 42
2.5
  3
LiberationSerif-Regular.ttf
  4

  0
STYLE
  5
53
330
5
100
AcDbSymbolTableRecord
100
AcDbTextStyleTableRecord
  2
LiberationSerif-Bold
 70
0
 40
0.0
 41
1.0
 50
0.0
 71
0
 42
2.5
  3
LiberationSerif-Bold.ttf
  4

  0
STYLE
  5
54
330
5
100
AcDbSymbolTableRecord
100
AcDbTextStyleTableRecord
  2
LiberationSerif-BoldItalic
 70
0
 40
0.0
 41
1.0
 50
0.0
 71
0
 42
2.5
  3
LiberationSerif-BoldItalic.ttf
  4

  0
STYLE
  5
55
330
5
100
AcDbSymbolTableRecord
100
AcDbTextStyleTableRecord
  2
LiberationSerif-Italic
 70
0
 40
0.0
 41
1.0
 50
0.0
 71
0
 42
2.5
  3
LiberationSerif-Italic.ttf
  4

  0
STYLE
  5
56
330
5
100
AcDbSymbolTableRecord
100
AcDbTextStyleTableRecord
  2
LiberationMono
 70
0
 40
0.0
 41
1.0
 50
0.0
 71
0
 42
2.5
  3
LiberationMono-Regular.ttf
  4

  0
STYLE
  5
57
330
5
100
AcDbSymbolTableRecord
100
AcDbTextStyleTableRecord
  2
LiberationMono-Bold
 70
0
 40
0.0
 41
1.0
 50
0.0
 71
0
 42
2.5
  3
LiberationMono-Bold.ttf
  4

  0
STYLE
  5
58
330
5
100
AcDbSymbolTableRecord
100
AcDbTextStyleTableRecord
  2
LiberationMono-BoldItalic
 70
0
 40
0.0
 41
1.0
 50
0.0
 71
0
 42
2.5
  3
LiberationMono-BoldItalic.ttf
  4

  0
STYLE
  5
59
330
5
100
AcDbSymbolTableRecord
100
AcDbTextStyleTableRecord
  2
LiberationMono-Italic
 70
0
 40
0.0
 41
1.0
 50
0.0
 71
0
 42
2.5
  3
LiberationMono-Italic.ttf
  4

  0
STYLE
  5
8A
330
5
100
AcDbSymbolTableRecord
100
AcDbTextStyleTableRecord
  2
20
 70
0
 40
0.0
 41
1.0
 50
0.0
 71
0
 42
2.5
  3
arial.ttf
  4

  0
STYLE
  5
8B
330
5
100
AcDbSymbolTableRecord
100
AcDbTextStyleTableRecord
  2
50
 70
0
 40
0.0
 41
1.0
 50
0.0
 71
0
 42
2.5
  3
ARIALN.TTF
  4

  0
STYLE
  5
8C
330
5
100
AcDbSymbolTableRecord
100
AcDbTextStyleTableRecord
  2
RomanS
 70
0
 40
0.0
 41
1.0
 50
0.0
 71
0
 42
2.5
  3
arial.ttf
  4

  0
ENDTAB
  0
TABLE
  2
VIEW
  5
7
330
0
100
AcDbSymbolTable
 70
0
  0
ENDTAB
  0
TABLE
  2
UCS
  5
6
330
0
100
AcDbSymbolTable
 70
0
  0
ENDTAB
  0
TABLE
  2
APPID
  5
3
330
0
100
AcDbSymbolTable
 70
3
  0
APPID
  5
2A
330
3
100
AcDbSymbolTableRecord
100
AcDbRegAppTableRecord
  2
ACAD
 70
0
  0
APPID
  5
177
330
3
100
AcDbSymbolTableRecord
100
AcDbRegAppTableRecord
  2
HATCHBACKGROUNDCOLOR
 70
0
  0
APPID
  5
178
330
3
100
AcDbSymbolTableRecord
100
AcDbRegAppTableRecord
  2
EZDXF
 70
0
  0
ENDTAB
  0
TABLE
  2
DIMSTYLE
  5
4
330
0
100
AcDbSymbolTable
 70
17
100
AcDbDimStyleTable
  0
DIMSTYLE
105
2B
330
4
100
AcDbSymbolTableRecord
100
AcDbDimStyleTableRecord
  2
Standard
 70
0
 40
1.0
 41
2.5
 42
0.625
 43
3.75
 44
1.25
 45
0.0
 46
0.0
 47
0.0
 48
0.0
 49
2.5
140
2.5
141
2.5
142
0.0
143
0.03937007874
144
1.0
145
0.0
146
1.0
147
0.625
148
0.0
 69
0
 70
0
 71
0
 72
0
 73
0
 74
0
 75
0
 76
0
 77
1
 78
8
 79
3
170
0
171
3
172
1
173
0
174
0
175
0
176
0
177
0
178
0
179
2
271
2
272
2
273
2
274
3
275
0
276
0
277
2
278
44
279
0
280
0
281
0
282
0
283
0
284
8
285
0
286
0
288
0
289
3
290
0
371
-2
372
-2
  0
DIMSTYLE
105
73
330
4
100
AcDbSymbolTableRecord
100
AcDbDimStyleTableRecord
  2
EZDXF
 70
0
 40
1.0
 41
0.175
 42
0.125
 43
3.75
 44
0.375
 45
0.0
 46
0.0
 47
0.0
 48
0.0
 49
2.5
140
0.25
141
2.5
142
0.0
143
0.03937007874
144
100.0
145
0.0
146
0.5
147
0.1
148
0.0
 69
0
 70
0
 71
0
 72
0
 73
0
 74
0
 75
0
 76
0
 77
1
 78
12
 79
3
170
0
171
3
172
1
173
0
174
0
175
0
176
0
177
0
178
0
179
2
271
2
272
2
273
2
274
3
275
0
276
0
277
2
278
46
279
2
280
0
281
0
282
0
283
0
284
8
285
0
286
0
288
1
289
3
290
0
340
4C
342
74
371
-2
372
-2
  0
DIMSTYLE
105
7C
330
4
100
AcDbSymbolTableRecord
100
AcDbDimStyleTableRecord
  2
EZ_M_100_H25_CM
 70
0
 40
1.0
 41
0.25
 42
0.125
 43
3.75
 44
0.375
 45
0.0
 46
0.0
 47
0.0
 48
0.0
 49
2.5
140
0.25
141
2.5
142
0.125
143
0.03937007874
144
100.0
145
0.0
146
0.5
147
0.1
148
0.0
 69
0
 70
0
 71
0
 72
0
 73
0
 74
0
 75
0
 76
0
 77
1
 78
12
 79
3
170
0
171
3
172
1
173
0
174
0
175
0
176
0
177
0
178
0
179
2
271
2
272
2
273
2
274
3
275
0
276
0
277
2
278
46
279
2
280
0
281
0
282
0
283
0
284
8
285
0
286
0
288
1
289
3
290
0
340
4C
371
-2
372
-2
  0
DIMSTYLE
105
7D
330
4
100
AcDbSymbolTableRecord
100
AcDbDimStyleTableRecord
  2
EZ_M_50_H25_CM
 70
0
 40
1.0
 41
0.125
 42
0.0625
 43
3.75
 44
0.1875
 45
0.0
 46
0.0
 47
0.0
 48
0.0
 49
2.5
140
0.125
141
2.5
142
0.0625
143
0.03937007874
144
100.0
145
0.0
146
0.5
147
0.05
148
0.0
 69
0
 70
0
 71
0
 72
0
 73
0
 74
0
 75
0
 76
0
 77
1
 78
12
 79
3
170
0
171
3
172
1
173
0
174
0
175
0
176
0
177
0
178
0
179
2
271
2
272
2
273
2
274
3
275
0
276
0
277
2
278
46
279
2
280
0
281
0
282
0
283
0
284
8
285
0
286
0
288
1
289
3
290
0
340
4C
371
-2
372
-2
  0
DIMSTYLE
105
7E
330
4
100
AcDbSymbolTableRecord
100
AcDbDimStyleTableRecord
  2
EZ_M_25_H25_CM
 70
0
 40
1.0
 41
0.0625
 42
0.03125
 43
3.75
 44
0.09375
 45
0.0
 46
0.0
 47
0.0
 48
0.0
 49
2.5
140
0.0625
141
2.5
142
0.03125
143
0.03937007874
144
100.0
145
0.0
146
0.5
147
0.025
148
0.0
 69
0
 70
0
 71
0
 72
0
 73
0
 74
0
 75
0
 76
0
 77
1
 78
12
 79
3
170
0
171
3
172
1
173
0
174
0
175
0
176
0
177
0
178
0
179
2
271
2
272
2
273
2
274
3
275
0
276
0
277
2
278
46
279
2
280
0
281
0
282
0
283
0
284
8
285
0
286
0
288
1
289
3
290
0
340
4C
371
-2
372
-2
  0
DIMSTYLE
105
7F
330
4
100
AcDbSymbolTableRecord
100
AcDbDimStyleTableRecord
  2
EZ_M_20_H25_CM
 70
0
 40
1.0
 41
0.05
 42
0.025
 43
3.75
 44
0.07500000000000001
 45
0.0
 46
0.0
 47
0.0
 48
0.0
 49
2.5
140
0.05
141
2.5
142
0.025
143
0.03937007874
144
100.0
145
0.0
146
0.5
147
0.020000000000000004
148
0.0
 69
0
 70
0
 71
0
 72
0
 73
0
 74
0
 75
0
 76
0
 77
1
 78
12
 79
3
170
0
171
3
172
1
173
0
174
0
175
0
176
0
177
0
178
0
179
2
271
2
272
2
273
2
274
3
275
0
276
0
277
2
278
46
279
2
280
0
281
0
282
0
283
0
284
8
285
0
286
0
288
1
289
3
290
0
340
4C
371
-2
372
-2
  0
DIMSTYLE
105
80
330
4
100
AcDbSymbolTableRecord
100
AcDbDimStyleTableRecord
  2
EZ_M_10_H25_CM
 70
0
 40
1.0
 41
0.025
 42
0.0125
 43
3.75
 44
0.037500000000000006
 45
0.0
 46
0.0
 47
0.0
 48
0.0
 49
2.5
140
0.025
141
2.5
142
0.0125
143
0.03937007874
144
100.0
145
0.0
146
0.5
147
0.010000000000000002
148
0.0
 69
0
 70
0
 71
0
 72
0
 73
0
 74
0
 75
0
 76
0
 77
1
 78
12
 79
3
170
0
171
3
172
1
173
0
174
0
175
0
176
0
177
0
178
0
179
2
271
2
272
2
273
2
274
3
275
0
276
0
277
2
278
46
279
2
280
0
281
0
282
0
283
0
284
8
285
0
286
0
288
1
289
3
290
0
340
4C
371
-2
372
-2
  0
DIMSTYLE
105
81
330
4
100
AcDbSymbolTableRecord
100
AcDbDimStyleTableRecord
  2
EZ_M_5_H25_CM
 70
0
 40
1.0
 41
0.0125
 42
0.00625
 43
3.75
 44
0.018750000000000003
 45
0.0
 46
0.0
 47
0.0
 48
0.0
 49
2.5
140
0.0125
141
2.5
142
0.00625
143
0.03937007874
144
100.0
145
0.0
146
0.5
147
0.005000000000000001
148
0.0
 69
0
 70
0
 71
0
 72
0
 73
0
 74
0
 75
0
 76
0
 77
1
 78
12
 79
3
170
0
171
3
172
1
173
0
174
0
175
0
176
0
177
0
178
0
179
2
271
2
272
2
273
2
274
3
275
0
276
0
277
2
278
46
279
2
280
0
281
0
282
0
283
0
284
8
285
0
286
0
288
1
289
3
290
0
340
4C
371
-2
372
-2
  0
DIMSTYLE
105
82
330
4
100
AcDbSymbolTableRecord
100
AcDbDimStyleTableRecord
  2
EZ_M_1_H25_CM
 70
0
 40
1.0
 41
0.0025
 42
0.00125
 43
3.75
 44
0.00375
 45
0.0
 46
0.0
 47
0.0
 48
0.0
 49
2.5
140
0.0025
141
2.5
142
0.00125
143
0.03937007874
144
100.0
145
0.0
146
0.5
147
0.001
148
0.0
 69
0
 70
0
 71
0
 72
0
 73
0
 74
0
 75
0
 76
0
 77
1
 78
12
 79
3
170
0
171
3
172
1
173
0
174
0
175
0
176
0
177
0
178
0
179
2
271
2
272
2
273
2
274
3
275
0
276
0
277
2
278
46
279
2
280
0
281
0
282
0
283
0
284
8
285
0
286
0
288
1
289
3
290
0
340
4C
371
-2
372
-2
  0
DIMSTYLE
105
83
330
4
100
AcDbSymbolTableRecord
100
AcDbDimStyleTableRecord
  2
EZ_RADIUS
 70
0
 40
1.0
 41
0.25
 42
0.125
 43
3.75
 44
0.375
 45
0.0
 46
0.0
 47
0.0
 48
0.0
 49
2.5
140
0.25
141
0.0
142
0.0
143
0.03937007874
144
100.0
145
0.0
146
0.5
147
0.1
148
0.0
 69
0
 70
0
 71
0
 72
0
 73
0
 74
0
 75
0
 76
0
 77
1
 78
12
 79
3
170
0
171
3
172
0
173
0
174
0
175
0
176
0
177
0
178
0
179
2
271
2
272
2
273
2
274
3
275
0
276
0
277
2
278
46
279
1
280
0
281
0
282
0
283
0
284
8
285
0
286
0
288
1
289
3
290
0
340
4C
342
84
371
-2
372
-2
  0
DIMSTYLE
105
88
330
4
100
AcDbSymbolTableRecord
100
AcDbDimStyleTableRecord
  2
EZ_RADIUS_INSIDE
 70
0
 40
1.0
 41
0.25
 42
0.125
 43
3.75
 44
0.375
 45
0.0
 46
0.0
 47
0.0
 48
0.0
 49
2.5
140
0.25
141
0.0
142
0.0
143
0.03937007874
144
100.0
145
0.0
146
0.5
147
0.1
148
0.0
 69
0
 70
0
 71
0
 72
0
 73
0
 74
0
 75
0
 76
0
 77
0
 78
12
 79
3
170
0
171
3
172
0
173
0
174
1
175
0
176
0
177
0
178
0
179
2
271
2
272
2
273
2
274
3
275
0
276
0
277
2
278
46
279
0
280
0
281
0
282
0
283
0
284
8
285
0
286
0
288
1
289
0
290
0
340
4C
342
84
371
-2
372
-2
  0
DIMSTYLE
105
89
330
4
100
AcDbSymbolTableRecord
100
AcDbDimStyleTableRecord
  2
EZ_CURVED
 70
0
 40
1.0
 41
0.25
 42
0.125
 43
3.75
 44
0.375
 45
0.0
 46
0.0
 47
0.0
 48
0.0
 49
2.5
140
0.25
141
2.5
142
0.0
143
0.03937007874
144
100.0
145
0.0
146
0.5
147
0.1
148
0.0
 69
0
 70
0
 71
0
 72
0
 73
0
 74
0
 75
0
 76
0
 77
1
 78
12
 79
2
 90
2
170
0
171
3
172
1
173
0
174
0
175
0
176
0
177
0
178
0
179
2
271
2
272
2
273
2
274
3
275
0
276
0
277
2
278
46
279
2
280
0
281
0
282
0
283
0
284
8
285
0
286
0
288
1
289
3
290
0
340
4C
371
-2
372
-2
  0
DIMSTYLE
105
A5
330
4
100
AcDbSymbolTableRecord
100
AcDbDimStyleTableRecord
  2
M 20
 70
0
 40
20.0
 41
1.0
 42
0.0
 43
3.75
 44
2.0
 45
0.0
 46
0.0
 47
0.0
 48
0.0
 49
2.5
140
2.5
141
2.5
142
0.0
143
0.03937007874
144
1.0
145
0.0
146
1.0
147
0.625
148
0.0
 69
0
 70
0
 71
0
 72
0
 73
0
 74
0
 75
0
 76
0
 77
1
 78
8
 79
3
170
0
171
3
172
1
173
0
174
0
175
0
176
0
177
0
178
0
179
2
271
0
272
2
273
2
274
3
275
0
276
0
277
2
278
44
279
0
280
0
281
0
282
0
283
0
284
8
285
0
286
0
288
0
289
3
290
0
340
29
342
74
371
-2
372
-2
  0
DIMSTYLE
105
A6
330
4
100
AcDbSymbolTableRecord
100
AcDbDimStyleTableRecord
  2
M 30
 70
0
 40
30.0
 41
1.0
 42
0.0
 43
3.75
 44
2.0
 45
0.0
 46
0.0
 47
0.0
 48
0.0
 49
2.5
140
2.5
141
2.5
142
0.0
143
0.03937007874
144
1.0
145
0.0
146
1.0
147
0.625
148
0.0
 69
0
 70
0
 71
0
 72
0
 73
0
 74
0
 75
0
 76
0
 77
1
 78
8
 79
3
170
0
171
3
172
1
173
0
174
0
175
0
176
0
177
0
178
0
179
2
271
0
272
2
273
2
274
3
275
0
276
0
277
2
278
44
279
0
280
0
281
0
282
0
283
0
284
8
285
0
286
0
288
0
289
3
290
0
340
29
342
74
371
-2
372
-2
  0
DIMSTYLE
105
A7
330
4
100
AcDbSymbolTableRecord
100
AcDbDimStyleTableRecord
  2
M 50
 70
0
 40
50.0
 41
1.0
 42
0.0
 43
3.75
 44
2.0
 45
0.0
 46
0.0
 47
0.0
 48
0.0
 49
2.5
140
2.5
141
2.5
142
0.0
143
0.03937007874
144
1.0
145
0.0
146
1.0
147
0.625
148
0.0
 69
0
 70
0
 71
0
 72
0
 73
0
 74
0
 75
0
 76
0
 77
1
 78
8
 79
3
170
0
171
3
172
1
173
0
174
0
175
0
176
0
177
0
178
0
179
2
271
0
272
2
273
2
274
3
275
0
276
0
277
2
278
44
279
0
280
0
281
0
282
0
283
0
284
8
285
0
286
0
288
0
289
3
290
0
340
29
342
74
371
-2
372
-2
  0
DIMSTYLE
105
A8
330
4
100
AcDbSymbolTableRecord
100
AcDbDimStyleTableRecord
  2
M 100
 70
0
 40
100.0
 41
1.0
 42
0.0
 43
3.75
 44
2.0
 45
0.0
 46
0.0
 47
0.0
 48
0.0
 49
2.5
140
2.5
141
2.5
142
0.0
143
0.03937007874
144
1.0
145
0.0
146
1.0
147
0.625
148
0.0
 69
0
 70
0
 71
0
 72
0
 73
0
 74
0
 75
0
 76
0
 77
1
 78
8
 79
3
170
0
171
3
172
1
173
0
174
0
175
0
176
0
177
0
178
0
179
2
271
0
272
2
273
2
274
3
275
0
276
0
277
2
278
44
279
0
280
0
281
0
282
0
283
0
284
8
285
0
286
0
288
0
289
3
290
0
340
29
342
74
371
-2
372
-2
  0
DIMSTYLE
105
A9
330
4
100
AcDbSymbolTableRecord
100
AcDbDimStyleTableRecord
  2
M 200
 70
0
 40
200.0
 41
1.0
 42
0.0
 43
3.75
 44
2.0
 45
0.0
 46
0.0
 47
0.0
 48
0.0
 49
2.5
140
2.5
141
2.5
142
0.0
143
0.03937007874
144
1.0
145
0.0
146
1.0
147
0.625
148
0.0
 69
0
 70
0
 71
0
 72
0
 73
0
 74
0
 75
0
 76
0
 77
1
 78
8
 79
3
170
0
171
3
172
1
173
0
174
0
175
0
176
0
177
0
178
0
179
2
271
0
272
2
273
2
274
3
275
0
276
0
277
2
278
44
279
0
280
0
281
0
282
0
283
0
284
8
285
0
286
0
288
0
289
3
290
0
340
29
342
74
371
-2
372
-2
  0
ENDTAB
  0
TABLE
  2
BLOCK_RECORD
  5
9
330
0
100
AcDbSymbolTable
 70
9
  0
BLOCK_RECORD
  5
17
330
9
100
AcDbSymbolTableRecord
100
AcDbBlockTableRecord
  2
*Model_Space
340
1A
 70
0
280
1
281
0
  0
BLOCK_RECORD
  5
1B
330
9
100
AcDbSymbolTableRecord
100
AcDbBlockTableRecord
  2
*Paper_Space
340
1E
 70
0
280
1
281
0
  0
BLOCK_RECORD
  5
74
330
9
100
AcDbSymbolTableRecord
100
AcDbBlockTableRecord
  2
_ARCHTICK
340
0
 70
0
280
1
281
0
  0
BLOCK_RECORD
  5
78
330
9
100
AcDbSymbolTableRecord
100
AcDbBlockTableRecord
  2
_CLOSEDFILLED
340
0
 70
0
280
1
281
0
  0
BLOCK_RECORD
  5
84
330
9
100
AcDbSymbolTableRecord
100
AcDbBlockTableRecord
  2
_CLOSEDBLANK
340
0
 70
0
280
1
281
0
  0
BLOCK_RECORD
  5
102
330
9
100
AcDbSymbolTableRecord
100
AcDbBlockTableRecord
  2
*D1
340
0
 70
0
280
1
281
0
  0
BLOCK_RECORD
  5
112
330
9
100
AcDbSymbolTableRecord
100
AcDbBlockTableRecord
  2
*D2
340
0
 70
0
280
1
281
0
  0
BLOCK_RECORD
  5
122
330
9
100
AcDbSymbolTableRecord
100
AcDbBlockTableRecord
  2
*D3
340
0
 70
0
280
1
281
0
  0
BLOCK_RECORD
  5
15E
330
9
100
AcDbSymbolTableRecord
100
AcDbBlockTableRecord
  2
*D4
340
0
 70
0
280
1
281
0
  0
ENDTAB
  0
ENDSEC
  0
SECTION
  2
BLOCKS
  0
BLOCK
  5
18
330
17
100
AcDbEntity
  8
0
100
AcDbBlockBegin
  2
*Model_Space
 70
0
 10
0.0
 20
0.0
 30
0.0
  3
*Model_Space
  1

  0
ENDBLK
  5
19
330
17
100
AcDbEntity
  8
0
100
AcDbBlockEnd
  0
BLOCK
  5
1C
330
1B
100
AcDbEntity
  8
0
100
AcDbBlockBegin
  2
*Paper_Space
 70
0
 10
0.0
 20
0.0
 30
0.0
  3
*Paper_Space
  1

  0
ENDBLK
  5
1D
330
1B
100
AcDbEntity
  8
0
100
AcDbBlockEnd
  0
BLOCK
  5
75
330
74
100
AcDbEntity
  8
0
100
AcDbBlockBegin
  2
_ARCHTICK
 70
0
 10
0.0
 20
0.0
 30
0.0
  3
_ARCHTICK
  1

  0
LWPOLYLINE
  5
77
330
74
100
AcDbEntity
  8
0
  6
BYBLOCK
 62
0
100
AcDbPolyline
 90
2
 70
0
 43
0.15
 10
-0.5
 20
-0.5
 10
0.5
 20
0.5
  0
ENDBLK
  5
76
330
74
100
AcDbEntity
  8
0
100
AcDbBlockEnd
  0
BLOCK
  5
79
330
78
100
AcDbEntity
  8
0
100
AcDbBlockBegin
  2
_CLOSEDFILLED
 70
0
 10
0.0
 20
0.0
 30
0.0
  3
_CLOSEDFILLED
  1

  0
SOLID
  5
7B
330
78
100
AcDbEntity
  8
0
  6
BYBLOCK
 62
0
100
AcDbTrace
 10
-1.0
 20
0.16439898372402537
 30
0.0
 11
0.0
 21
0.0
 31
0.0
 12
-1.0
 22
-0.16439898372402537
 32
0.0
 13
-1.0
 23
-0.16439898372402537
 33
0.0
  0
ENDBLK
  5
7A
330
78
100
AcDbEntity
  8
0
100
AcDbBlockEnd
  0
BLOCK
  5
85
330
84
100
AcDbEntity
  8
0
100
AcDbBlockBegin
  2
_CLOSEDBLANK
 70
0
 10
0.0
 20
0.0
 30
0.0
  3
_CLOSEDBLANK
  1

  0
LWPOLYLINE
  5
87
330
84
100
AcDbEntity
  8
0
  6
BYBLOCK
 62
0
100
AcDbPolyline
 90
3
 70
1
 10
-1.0
 20
0.16439898372402537
 10
0.0
 20
0.0
 10
-1.0
 20
-0.16439898372402537
  0
ENDBLK
  5
86
330
84
100
AcDbEntity
  8
0
100
AcDbBlockEnd
  0
BLOCK
  5
103
330
102
100
AcDbEntity
  8
0
100
AcDbBlockBegin
  2
*D1
 70
1
 10
0.0
 20
0.0
 30
0.0
  3
*D1
  1

  0
LINE
  5
105
330
102
100
AcDbEntity
  8
0
100
AcDbLine
 10
1900.0
 20
3600.0
 30
0.0
 11
1900.0
 21
2800.0
 31
0.0
  0
LINE
  5
106
330
102
100
AcDbEntity
  8
0
100
AcDbLine
 10
4905.0
 20
3600.0
 30
0.0
 11
4905.0
 21
2800.0
 31
0.0
  0
INSERT
  5
107
330
102
100
AcDbEntity
  8
Kote
100
AcDbBlockReference
  2
_CLOSEDFILLED
 10
1900.0
 20
2800.0
 30
0.0
 41
0.25
 42
0.25
 50
180.0
  0
INSERT
  5
109
330
102
100
AcDbEntity
  8
Kote
100
AcDbBlockReference
  2
_CLOSEDFILLED
 10
4905.0
 20
2800.0
 30
0.0
 41
0.25
 42
0.25
  0
LINE
  5
10B
330
102
100
AcDbEntity
  8
0
100
AcDbLine
 10
1900.25
 20
2800.0
 30
0.0
 11
3400.5
 21
2800.0
 31
0.0
  0
LINE
  5
10C
330
102
100
AcDbEntity
  8
0
100
AcDbLine
 10
3404.5
 20
2800.0
 30
0.0
 11
4904.75
 21
2800.0
 31
0.0
  0
MTEXT
  5
10D
330
102
100
AcDbEntity
  8
Kote
100
AcDbMText
 10
3402.5
 20
2800.0
 30
0.0
 40
1.0
 71
5
  1
3005
  7
OpenSansCondensed-Light
  0
POINT
  5
10E
330
102
100
AcDbEntity
  8
Defpoints
100
AcDbPoint
 10
1900.0
 20
2800.0
 30
0.0
  0
POINT
  5
10F
330
102
100
AcDbEntity
  8
Defpoints
100
AcDbPoint
 10
1900.0
 20
3600.0
 30
0.0
  0
POINT
  5
110
330
102
100
AcDbEntity
  8
Defpoints
100
AcDbPoint
 10
4905.0
 20
3600.0
 30
0.0
  0
ENDBLK
  5
104
330
102
100
AcDbEntity
  8
0
100
AcDbBlockEnd
  0
BLOCK
  5
113
330
112
100
AcDbEntity
  8
0
100
AcDbBlockBegin
  2
*D2
 70
1
 10
0.0
 20
0.0
 30
0.0
  3
*D2
  1

  0
LINE
  5
115
330
112
100
AcDbEntity
  8
0
100
AcDbLine
 10
1900.0
 20
3600.0
 30
0.0
 11
1100.0
 21
3600.0
 31
0.0
  0
LINE
  5
116
330
112
100
AcDbEntity
  8
0
100
AcDbLine
 10
1900.0
 20
5900.0
 30
0.0
 11
1100.0
 21
5900.0
 31
0.0
  0
INSERT
  5
117
330
112
100
AcDbEntity
  8
Kote
100
AcDbBlockReference
  2
_CLOSEDFILLED
 10
1100.0
 20
3600.0
 30
0.0
 41
0.25
 42
0.25
 50
270.0
  0
INSERT
  5
119
330
112
100
AcDbEntity
  8
Kote
100
AcDbBlockReference
  2
_CLOSEDFILLED
 10
1100.0
 20
5900.0
 30
0.0
 41
0.25
 42
0.25
 50
90.0
  0
LINE
  5
11B
330
112
100
AcDbEntity
  8
0
100
AcDbLine
 10
1100.0
 20
3600.25
 30
0.0
 11
1100.0
 21
4748.0
 31
0.0
  0
LINE
  5
11C
330
112
100
AcDbEntity
  8
0
100
AcDbLine
 10
1100.0
 20
4752.0
 30
0.0
 11
1100.0
 21
5899.75
 31
0.0
  0
MTEXT
  5
11D
330
112
100
AcDbEntity
  8
Kote
100
AcDbMText
 10
1100.0
 20
4750.0
 30
0.0
 40
1.0
 71
5
  1
2300
  7
OpenSansCondensed-Light
 50
90.0
  0
POINT
  5
11E
330
112
100
AcDbEntity
  8
Defpoints
100
AcDbPoint
 10
1100.0
 20
3600.0
 30
0.0
  0
POINT
  5
11F
330
112
100
AcDbEntity
  8
Defpoints
100
AcDbPoint
 10
1900.0
 20
3600.0
 30
0.0
  0
POINT
  5
120
330
112
100
AcDbEntity
  8
Defpoints
100
AcDbPoint
 10
1900.0
 20
5900.0
 30
0.0
  0
ENDBLK
  5
114
330
112
100
AcDbEntity
  8
0
100
AcDbBlockEnd
  0
BLOCK
  5
123
330
122
100
AcDbEntity
  8
0
100
AcDbBlockBegin
  2
*D3
 70
1
 10
0.0
 20
0.0
 30
0.0
  3
*D3
  1

  0
LINE
  5
125
330
122
100
AcDbEntity
  8
0
100
AcDbLine
 10
4050.0
 20
5900.0
 30
0.0
 11
4050.0
 21
6250.0
 31
0.0
  0
LINE
  5
126
330
122
100
AcDbEntity
  8
0
100
AcDbLine
 10
4550.0
 20
5900.0
 30
0.0
 11
4550.0
 21
6250.0
 31
0.0
  0
INSERT
  5
127
330
122
100
AcDbEntity
  8
Kote
100
AcDbBlockReference
  2
_CLOSEDFILLED
 10
4050.0
 20
6250.0
 30
0.0
 41
0.25
 42
0.25
 50
180.0
  0
INSERT
  5
129
330
122
100
AcDbEntity
  8
Kote
100
AcDbBlockReference
  2
_CLOSEDFILLED
 10
4550.0
 20
6250.0
 30
0.0
 41
0.25
 42
0.25
  0
LINE
  5
12B
330
122
100
AcDbEntity
  8
0
100
AcDbLine
 10
4050.25
 20
6250.0
 30
0.0
 11
4298.5
 21
6250.0
 31
0.0
  0
LINE
  5
12C
330
122
100
AcDbEntity
  8
0
100
AcDbLine
 10
4301.5
 20
6250.0
 30
0.0
 11
4549.75
 21
6250.0
 31
0.0
  0
MTEXT
  5
12D
330
122
100
AcDbEntity
  8
Kote
100
AcDbMText
 10
4300.0
 20
6250.0
 30
0.0
 40
1.0
 71
5
  1
500
  7
OpenSansCondensed-Light
  0
POINT
  5
12E
330
122
100
AcDbEntity
  8
Defpoints
100
AcDbPoint
 10
4050.0
 20
6250.0
 30
0.0
  0
POINT
  5
12F
330
122
100
AcDbEntity
  8
Defpoints
100
AcDbPoint
 10
4050.0
 20
5900.0
 30
0.0
  0
POINT
  5
130
330
122
100
AcDbEntity
  8
Defpoints
100
AcDbPoint
 10
4550.0
 20
5900.0
 30
0.0
  0
ENDBLK
  5
124
330
122
100
AcDbEntity
  8
0
100
AcDbBlockEnd
  0
BLOCK
  5
15F
330
15E
100
AcDbEntity
  8
0
100
AcDbBlockBegin
  2
*D4
 70
1
 10
0.0
 20
0.0
 30
0.0
  3
*D4
  1

  0
LINE
  5
161
330
15E
100
AcDbEntity
  8
0
100
AcDbLine
 10
6600.0
 20
3300.0
 30
0.0
 11
5900.0
 21
3300.0
 31
0.0
  0
LINE
  5
162
330
15E
100
AcDbEntity
  8
0
100
AcDbLine
 10
6600.0
 20
5930.0
 30
0.0
 11
5900.0
 21
5930.0
 31
0.0
  0
INSERT
  5
163
330
15E
100
AcDbEntity
  8
Kote
100
AcDbBlockReference
  2
_CLOSEDFILLED
 10
5900.0
 20
3300.0
 30
0.0
 41
0.25
 42
0.25
 50
270.0
  0
INSERT
  5
165
330
15E
100
AcDbEntity
  8
Kote
100
AcDbBlockReference
  2
_CLOSEDFILLED
 10
5900.0
 20
5930.0
 30
0.0
 41
0.25
 42
0.25
 50
90.0
  0
LINE
  5
167
330
15E
100
AcDbEntity
  8
0
100
AcDbLine
 10
5900.0
 20
3300.25
 30
0.0
 11
5900.0
 21
4613.0
 31
0.0
  0
LINE
  5
168
330
15E
100
AcDbEntity
  8
0
100
AcDbLine
 10
5900.0
 20
4617.0
 30
0.0
 11
5900.0
 21
5929.75
 31
0.0
  0
MTEXT
  5
169
330
15E
100
AcDbEntity
  8
Kote
100
AcDbMText
 10
5900.0
 20
4615.0
 30
0.0
 40
1.0
 71
5
  1
2630
  7
OpenSansCondensed-Light
 50
90.0
  0
POINT
  5
16A
330
15E
100
AcDbEntity
  8
Defpoints
100
AcDbPoint
 10
5900.0
 20
3300.0
 30
0.0
  0
POINT
  5
16B
330
15E
100
AcDbEntity
  8
Defpoints
100
AcDbPoint
 10
6600.0
 20
3300.0
 30
0.0
  0
POINT
  5
16C
330
15E
100
AcDbEntity
  8
Defpoints
100
AcDbPoint
 10
6600.0
 20
5930.0
 30
0.0
  0
ENDBLK
  5
160
330
15E
100
AcDbEntity
  8
0
100
AcDbBlockEnd
  0
ENDSEC
  0
SECTION
  2
ENTITIES
  0
LWPOLYLINE
  5
AA
330
17
100
AcDbEntity
  8
Okvir
 62
8
100
AcDbPolyline
 90
4
 70
1
 10
0.0
 20
0.0
 10
10500.0
 20
0.0
 10
10500.0
 20
7425.0
 10
0.0
 20
7425.0
  0
LWPOLYLINE
  5
AB
330
17
100
AcDbEntity
  8
Okvir
370
50
100
AcDbPolyline
 90
4
 70
1
 10
500.0
 20
250.0
 10
10250.0
 20
250.0
 10
10250.0
 20
7175.0
 10
500.0
 20
7175.0
  0
LWPOLYLINE
  5
AC
330
17
100
AcDbEntity
  8
Okvir
370
50
100
AcDbPolyline
 90
4
 70
1
 10
5750.0
 20
250.0
 10
10250.0
 20
250.0
 10
10250.0
 20
1450.0
 10
5750.0
 20
1450.0
  0
LINE
  5
AD
330
17
100
AcDbEntity
  8
Okvir
100
AcDbLine
 10
5750.0
 20
400.0
 30
0.0
 11
10250.0
 21
400.0
 31
0.0
  0
LINE
  5
AE
330
17
100
AcDbEntity
  8
Okvir
100
AcDbLine
 10
5750.0
 20
600.0
 30
0.0
 11
10250.0
 21
600.0
 31
0.0
  0
LINE
  5
AF
330
17
100
AcDbEntity
  8
Okvir
100
AcDbLine
 10
5750.0
 20
800.0
 30
0.0
 11
10250.0
 21
800.0
 31
0.0
  0
LINE
  5
B0
330
17
100
AcDbEntity
  8
Okvir
100
AcDbLine
 10
5750.0
 20
1000.0
 30
0.0
 11
10250.0
 21
1000.0
 31
0.0
  0
LINE
  5
B1
330
17
100
AcDbEntity
  8
Okvir
100
AcDbLine
 10
5750.0
 20
1200.0
 30
0.0
 11
10250.0
 21
1200.0
 31
0.0
  0
LINE
  5
B2
330
17
100
AcDbEntity
  8
Okvir
100
AcDbLine
 10
8700.0
 20
400.0
 30
0.0
 11
8700.0
 21
800.0
 31
0.0
  0
LINE
  5
B3
330
17
100
AcDbEntity
  8
Okvir
100
AcDbLine
 10
7300.0
 20
250.0
 30
0.0
 11
7300.0
 21
400.0
 31
0.0
  0
LINE
  5
B4
330
17
100
AcDbEntity
  8
Okvir
100
AcDbLine
 10
8700.0
 20
250.0
 30
0.0
 11
8700.0
 21
400.0
 31
0.0
  0
HATCH
  5
B5
330
17
100
AcDbEntity
  8
Okvir
 62
30
100
AcDbHatch
 10
0.0
 20
0.0
 30
0.0
210
0.0
220
0.0
230
1.0
  2
SOLID
 70
1
 71
0
 91
1
 92
3
 72
0
 73
1
 93
53
 10
5865.218254647181
 20
1240.0000094528393
 10
6259.781471731606
 20
1240.0000094528393
 10
6261.839140515673
 20
1240.1516891019994
 10
6263.814936031009
 20
1240.5933299001497
 10
6265.690358948436
 20
1241.3048346232908
 10
6267.446909938779
 20
1242.2661060474256
 10
6269.06608967286
 20
1243.4570469485566
 10
6270.529398821503
 20
1244.8575601026869
 10
6271.818338055531
 20
1246.447548285818
 10
6272.914408045768
 20
1248.2069142739517
 10
6273.799109463038
 20
1250.1155608430918
 10
6274.4539429781635
 20
1252.1533907692399
 10
6274.860409261968
 20
1254.300306828398
 10
6275.000008985276
 20
1256.5362117965694
 10
6275.000008985276
 20
1430.155346705232
 10
6274.860409261968
 20
1432.3912516734028
 10
6274.4539429781635
 20
1434.5381677325613
 10
6273.799109463038
 20
1436.5759976587092
 10
6272.914408045768
 20
1438.4846442278495
 10
6271.818338055531
 20
1440.2440102159828
 10
6270.529398821503
 20
1441.833998399114
 10
6269.06608967286
 20
1443.2345115532444
 10
6267.446909938779
 20
1444.4254524543753
 10
6265.690358948436
 20
1445.3867238785106
 10
6263.814936031009
 20
1446.0982286016517
 10
6261.8391405156735
 20
1446.5398693998013
 10
6259.781471731606
 20
1446.6915490489619
 10
5865.218254647181
 20
1446.6915490489619
 10
5863.160475838913
 20
1446.5398536593445
 10
5861.1846199056645
 20
1446.0981713636284
 10
5859.309178544873
 20
1445.386607971513
 10
5857.5526434539825
 20
1444.4252692927002
 10
5855.93350633043
 20
1443.2342611368915
 10
5854.470258871656
 20
1441.8336893137875
 10
5853.181392775103
 20
1440.2436596330901
 10
5852.085399738208
 20
1438.4842779044986
 10
5851.200771458412
 20
1436.575649937717
 10
5850.545999633157
 20
1434.5378815424442
 10
5850.139575959881
 20
1432.391078528382
 10
5849.999992136024
 20
1430.155346705232
 10
5849.999992136024
 20
1256.5362117965694
 10
5850.139560219424
 20
1254.300479973419
 10
5850.545942395133
 20
1252.1536769593572
 10
5851.200655551415
 20
1250.1159085640845
 10
5852.085216576533
 20
1248.2072805973019
 10
5853.18114235875
 20
1246.4478988687108
 10
5854.46994978633
 20
1244.8578691880134
 10
5855.933155747536
 20
1243.45729736491
 10
5857.552277130632
 20
1242.2662892091005
 10
5859.308830823881
 20
1241.3049505302886
 10
5861.184333715547
 20
1240.5933871381733
 10
5863.160302693893
 20
1240.1517048424562
 10
5865.218254647181
 20
1240.0000094528393
 97
0
 75
0
 76
1
 98
0
  0
LWPOLYLINE
  5
B6
330
17
100
AcDbEntity
  8
Okvir
 62
30
100
AcDbPolyline
 90
53
 70
1
 10
5865.218254647181
 20
1240.0000094528393
 10
6259.781471731606
 20
1240.0000094528393
 10
6261.839140515673
 20
1240.1516891019994
 10
6263.814936031009
 20
1240.5933299001497
 10
6265.690358948436
 20
1241.3048346232908
 10
6267.446909938779
 20
1242.2661060474256
 10
6269.06608967286
 20
1243.4570469485566
 10
6270.529398821503
 20
1244.8575601026869
 10
6271.818338055531
 20
1246.447548285818
 10
6272.914408045768
 20
1248.2069142739517
 10
6273.799109463038
 20
1250.1155608430918
 10
6274.4539429781635
 20
1252.1533907692399
 10
6274.860409261968
 20
1254.300306828398
 10
6275.000008985276
 20
1256.5362117965694
 10
6275.000008985276
 20
1430.155346705232
 10
6274.860409261968
 20
1432.3912516734028
 10
6274.4539429781635
 20
1434.5381677325613
 10
6273.799109463038
 20
1436.5759976587092
 10
6272.914408045768
 20
1438.4846442278495
 10
6271.818338055531
 20
1440.2440102159828
 10
6270.529398821503
 20
1441.833998399114
 10
6269.06608967286
 20
1443.2345115532444
 10
6267.446909938779
 20
1444.4254524543753
 10
6265.690358948436
 20
1445.3867238785106
 10
6263.814936031009
 20
1446.0982286016517
 10
6261.8391405156735
 20
1446.5398693998013
 10
6259.781471731606
 20
1446.6915490489619
 10
5865.218254647181
 20
1446.6915490489619
 10
5863.160475838913
 20
1446.5398536593445
 10
5861.1846199056645
 20
1446.0981713636284
 10
5859.309178544873
 20
1445.386607971513
 10
5857.5526434539825
 20
1444.4252692927002
 10
5855.93350633043
 20
1443.2342611368915
 10
5854.470258871656
 20
1441.8336893137875
 10
5853.181392775103
 20
1440.2436596330901
 10
5852.085399738208
 20
1438.4842779044986
 10
5851.200771458412
 20
1436.575649937717
 10
5850.545999633157
 20
1434.5378815424442
 10
5850.139575959881
 20
1432.391078528382
 10
5849.999992136024
 20
1430.155346705232
 10
5849.999992136024
 20
1256.5362117965694
 10
5850.139560219424
 20
1254.300479973419
 10
5850.545942395133
 20
1252.1536769593572
 10
5851.200655551415
 20
1250.1159085640845
 10
5852.085216576533
 20
1248.2072805973019
 10
5853.18114235875
 20
1246.4478988687108
 10
5854.46994978633
 20
1244.8578691880134
 10
5855.933155747536
 20
1243.45729736491
 10
5857.552277130632
 20
1242.2662892091005
 10
5859.308830823881
 20
1241.3049505302886
 10
5861.184333715547
 20
1240.5933871381733
 10
5863.160302693893
 20
1240.1517048424562
 10
5865.218254647181
 20
1240.0000094528393
  0
HATCH
  5
B7
330
17
100
AcDbEntity
  8
Okvir
 62
7
100
AcDbHatch
 10
0.0
 20
0.0
 30
0.0
210
0.0
220
0.0
230
1.0
  2
SOLID
 70
1
 71
0
 91
1
 92
3
 72
0
 73
1
 93
49
 10
6107.621375506059
 20
1396.2323391990012
 10
6110.747714438542
 20
1396.0134918422925
 10
6113.60506900366
 20
1395.3765340798773
 10
6116.175363433611
 20
1394.3508423733197
 10
6118.440521960591
 20
1392.9657931841843
 10
6120.382468816797
 20
1391.2507629740353
 10
6121.983128234426
 20
1389.2351282044394
 10
6123.224424445675
 20
1386.9482653369591
 10
6124.088281682742
 20
1384.4195508331597
 10
6124.5566241778215
 20
1381.6783611546064
 10
6124.611376163112
 20
1378.7540727628639
 10
6124.23446187081
 20
1375.6760621194962
 10
6123.407805533114
 20
1372.4737056860683
 10
6122.149391654976
 20
1369.2748650982305
 10
6120.515830231528
 20
1366.2059653172446
 10
6118.545541332036
 20
1363.2952580775138
 10
6116.27694502577
 20
1360.5709951134436
 10
6113.748461381999
 20
1358.061428159436
 10
6110.998510469991
 20
1355.7948089498968
 10
6108.065512359014
 20
1353.7993892192299
 10
6104.987887118337
 20
1352.1034207018383
 10
6101.80405481723
 20
1350.7351551321267
 10
6098.55243552496
 20
1349.7228442444991
 10
6095.271449310795
 20
1349.0947397733594
 10
6091.9995162440055
 20
1348.879093453112
 10
6088.870245452766
 20
1349.0947397733592
 10
6086.004822870254
 20
1349.7228442444991
 10
6083.423033773241
 20
1350.7351551321265
 10
6081.144663438494
 20
1352.1034207018383
 10
6079.189497142785
 20
1353.7993892192294
 10
6077.577320162883
 20
1355.794808949897
 10
6076.3279177755585
 20
1358.0614281594362
 10
6075.461075257581
 20
1360.5709951134431
 10
6074.99657788572
 20
1363.2952580775138
 10
6074.954210936746
 20
1366.2059653172446
 10
6075.353759687429
 20
1369.2748650982307
 10
6076.215009414538
 20
1372.4737056860683
 10
6077.47299718739
 20
1375.6760621194958
 10
6079.106231718128
 20
1378.7540727628639
 10
6081.076277674008
 20
1381.6783611546064
 10
6083.344699722292
 20
1384.4195508331602
 10
6085.873062530235
 20
1386.9482653369585
 10
6088.622930765098
 20
1389.2351282044394
 10
6091.55586909414
 20
1391.250762974036
 10
6094.633442184617
 20
1392.965793184184
 10
6097.8172147037885
 20
1394.3508423733194
 10
6101.068751318914
 20
1395.3765340798773
 10
6104.349616697252
 20
1396.0134918422925
 10
6107.621375506059
 20
1396.2323391990012
 97
0
 75
0
 76
1
 98
0
  0
LWPOLYLINE
  5
B8
330
17
100
AcDbEntity
  8
Okvir
 62
7
100
AcDbPolyline
 90
49
 70
1
 10
6107.621375506059
 20
1396.2323391990012
 10
6110.747714438542
 20
1396.0134918422925
 10
6113.60506900366
 20
1395.3765340798773
 10
6116.175363433611
 20
1394.3508423733197
 10
6118.440521960591
 20
1392.9657931841843
 10
6120.382468816797
 20
1391.2507629740353
 10
6121.983128234426
 20
1389.2351282044394
 10
6123.224424445675
 20
1386.9482653369591
 10
6124.088281682742
 20
1384.4195508331597
 10
6124.5566241778215
 20
1381.6783611546064
 10
6124.611376163112
 20
1378.7540727628639
 10
6124.23446187081
 20
1375.6760621194962
 10
6123.407805533114
 20
1372.4737056860683
 10
6122.149391654976
 20
1369.2748650982305
 10
6120.515830231528
 20
1366.2059653172446
 10
6118.545541332036
 20
1363.2952580775138
 10
6116.27694502577
 20
1360.5709951134436
 10
6113.748461381999
 20
1358.061428159436
 10
6110.998510469991
 20
1355.7948089498968
 10
6108.065512359014
 20
1353.7993892192299
 10
6104.987887118337
 20
1352.1034207018383
 10
6101.80405481723
 20
1350.7351551321267
 10
6098.55243552496
 20
1349.7228442444991
 10
6095.271449310795
 20
1349.0947397733594
 10
6091.9995162440055
 20
1348.879093453112
 10
6088.870245452766
 20
1349.0947397733592
 10
6086.004822870254
 20
1349.7228442444991
 10
6083.423033773241
 20
1350.7351551321265
 10
6081.144663438494
 20
1352.1034207018383
 10
6079.189497142785
 20
1353.7993892192294
 10
6077.577320162883
 20
1355.794808949897
 10
6076.3279177755585
 20
1358.0614281594362
 10
6075.461075257581
 20
1360.5709951134431
 10
6074.99657788572
 20
1363.2952580775138
 10
6074.954210936746
 20
1366.2059653172446
 10
6075.353759687429
 20
1369.2748650982307
 10
6076.215009414538
 20
1372.4737056860683
 10
6077.47299718739
 20
1375.6760621194958
 10
6079.106231718128
 20
1378.7540727628639
 10
6081.076277674008
 20
1381.6783611546064
 10
6083.344699722292
 20
1384.4195508331602
 10
6085.873062530235
 20
1386.9482653369585
 10
6088.622930765098
 20
1389.2351282044394
 10
6091.55586909414
 20
1391.250762974036
 10
6094.633442184617
 20
1392.965793184184
 10
6097.8172147037885
 20
1394.3508423733194
 10
6101.068751318914
 20
1395.3765340798773
 10
6104.349616697252
 20
1396.0134918422925
 10
6107.621375506059
 20
1396.2323391990012
  0
HATCH
  5
B9
330
17
100
AcDbEntity
  8
Okvir
 62
7
100
AcDbHatch
 10
0.0
 20
0.0
 30
0.0
210
0.0
220
0.0
230
1.0
  2
SOLID
 70
1
 71
0
 91
1
 92
3
 72
0
 73
1
 93
49
 10
6165.880250544033
 20
1396.2323391990012
 10
6169.0437829031425
 20
1396.0134918422925
 10
6171.932173037533
 20
1395.3765340798773
 10
6174.527895618393
 20
1394.3508423733197
 10
6176.81342531691
 20
1392.9657931841843
 10
6178.771236804275
 20
1391.2507629740353
 10
6180.383804751676
 20
1389.2351282044394
 10
6181.633603830302
 20
1386.9482653369591
 10
6182.503108711342
 20
1384.4195508331597
 10
6182.974794065985
 20
1381.6783611546064
 10
6183.031134565422
 20
1378.7540727628639
 10
6182.654604880839
 20
1375.6760621194962
 10
6181.827679683426
 20
1372.4737056860683
 10
6180.56964453021
 20
1369.2748650982305
 10
6178.936398869857
 20
1366.2059653172446
 10
6176.9663684954385
 20
1363.2952580775138
 10
6174.697979200024
 20
1360.5709951134436
 10
6172.169656776686
 20
1358.061428159436
 10
6169.419827018493
 20
1355.7948089498968
 10
6166.486915718519
 20
1353.7993892192299
 10
6163.409348669833
 20
1352.1034207018383
 10
6160.225551665507
 20
1350.7351551321267
 10
6156.973950498611
 20
1349.7228442444991
 10
6153.692970962215
 20
1349.0947397733594
 10
6150.421038849393
 20
1348.879093453112
 10
6147.291500152404
 20
1349.0947397733592
 10
6144.425301199703
 20
1349.7228442444991
 10
6141.841650117987
 20
1350.7351551321265
 10
6139.559755033959
 20
1352.1034207018383
 10
6137.598824074316
 20
1353.7993892192294
 10
6135.978065365761
 20
1355.794808949897
 10
6134.716687034993
 20
1358.0614281594362
 10
6133.833897208711
 20
1360.5709951134431
 10
6133.348904013617
 20
1363.2952580775138
 10
6133.280915576412
 20
1366.2059653172446
 10
6133.649140023793
 20
1369.2748650982307
 10
6134.472785482462
 20
1372.4737056860683
 10
6135.7651772822655
 20
1375.6760621194958
 10
6137.420888389836
 20
1378.7540727628639
 10
6139.403190119498
 20
1381.6783611546064
 10
6141.675353785574
 20
1384.4195508331602
 10
6144.20065070239
 20
1386.9482653369585
 10
6146.94235218427
 20
1389.2351282044394
 10
6149.863729545536
 20
1391.250762974036
 10
6152.9280541005155
 20
1392.965793184184
 10
6156.098597163531
 20
1394.3508423733194
 10
6159.3386300489055
 20
1395.3765340798773
 10
6162.611424070965
 20
1396.0134918422925
 10
6165.880250544033
 20
1396.2323391990012
 97
0
 75
0
 76
1
 98
0
  0
LWPOLYLINE
  5
BA
330
17
100
AcDbEntity
  8
Okvir
 62
7
100
AcDbPolyline
 90
49
 70
1
 10
6165.880250544033
 20
1396.2323391990012
 10
6169.0437829031425
 20
1396.0134918422925
 10
6171.932173037533
 20
1395.3765340798773
 10
6174.527895618393
 20
1394.3508423733197
 10
6176.81342531691
 20
1392.9657931841843
 10
6178.771236804275
 20
1391.2507629740353
 10
6180.383804751676
 20
1389.2351282044394
 10
6181.633603830302
 20
1386.9482653369591
 10
6182.503108711342
 20
1384.4195508331597
 10
6182.974794065985
 20
1381.6783611546064
 10
6183.031134565422
 20
1378.7540727628639
 10
6182.654604880839
 20
1375.6760621194962
 10
6181.827679683426
 20
1372.4737056860683
 10
6180.56964453021
 20
1369.2748650982305
 10
6178.936398869857
 20
1366.2059653172446
 10
6176.9663684954385
 20
1363.2952580775138
 10
6174.697979200024
 20
1360.5709951134436
 10
6172.169656776686
 20
1358.061428159436
 10
6169.419827018493
 20
1355.7948089498968
 10
6166.486915718519
 20
1353.7993892192299
 10
6163.409348669833
 20
1352.1034207018383
 10
6160.225551665507
 20
1350.7351551321267
 10
6156.973950498611
 20
1349.7228442444991
 10
6153.692970962215
 20
1349.0947397733594
 10
6150.421038849393
 20
1348.879093453112
 10
6147.291500152404
 20
1349.0947397733592
 10
6144.425301199703
 20
1349.7228442444991
 10
6141.841650117987
 20
1350.7351551321265
 10
6139.559755033959
 20
1352.1034207018383
 10
6137.598824074316
 20
1353.7993892192294
 10
6135.978065365761
 20
1355.794808949897
 10
6134.716687034993
 20
1358.0614281594362
 10
6133.833897208711
 20
1360.5709951134431
 10
6133.348904013617
 20
1363.2952580775138
 10
6133.280915576412
 20
1366.2059653172446
 10
6133.649140023793
 20
1369.2748650982307
 10
6134.472785482462
 20
1372.4737056860683
 10
6135.7651772822655
 20
1375.6760621194958
 10
6137.420888389836
 20
1378.7540727628639
 10
6139.403190119498
 20
1381.6783611546064
 10
6141.675353785574
 20
1384.4195508331602
 10
6144.20065070239
 20
1386.9482653369585
 10
6146.94235218427
 20
1389.2351282044394
 10
6149.863729545536
 20
1391.250762974036
 10
6152.9280541005155
 20
1392.965793184184
 10
6156.098597163531
 20
1394.3508423733194
 10
6159.3386300489055
 20
1395.3765340798773
 10
6162.611424070965
 20
1396.0134918422925
 10
6165.880250544033
 20
1396.2323391990012
  0
HATCH
  5
BB
330
17
100
AcDbEntity
  8
Okvir
 62
7
100
AcDbHatch
 10
0.0
 20
0.0
 30
0.0
210
0.0
220
0.0
230
1.0
  2
SOLID
 70
1
 71
0
 91
1
 92
3
 72
0
 73
1
 93
49
 10
6223.48716159979
 20
1396.2323391990012
 10
6226.613442181288
 20
1396.0134918422925
 10
6229.470754612861
 20
1395.3765340798773
 10
6232.041016448937
 20
1394.3508423733197
 10
6234.306145243944
 20
1392.9657931841843
 10
6236.248058552308
 20
1391.2507629740353
 10
6237.848673928458
 20
1389.2351282044394
 10
6239.089908926821
 20
1386.9482653369591
 10
6239.953681101825
 20
1384.4195508331597
 10
6240.4219080078965
 20
1381.6783611546064
 10
6240.476507199463
 20
1378.7540727628639
 10
6240.099396230954
 20
1375.6760621194962
 10
6239.272492656794
 20
1372.4737056860683
 10
6238.0143417555755
 20
1369.2748650982305
 10
6236.381018505902
 20
1366.2059653172446
 10
6234.410941069108
 20
1363.2952580775138
 10
6232.142527606528
 20
1360.5709951134436
 10
6229.614196279497
 20
1358.061428159436
 10
6226.864365249349
 20
1355.7948089498968
 10
6223.931452677419
 20
1353.7993892192299
 10
6220.853876725041
 20
1352.1034207018383
 10
6217.670055553549
 20
1350.7351551321267
 10
6214.418407324278
 20
1349.7228442444991
 10
6211.137350198562
 20
1349.0947397733594
 10
6207.8653023377365
 20
1348.879093453112
 10
6204.736141570697
 20
1349.0947397733592
 10
6201.870779406099
 20
1349.7228442444991
 10
6199.289008752448
 20
1350.7351551321265
 10
6197.010622518252
 20
1352.1034207018383
 10
6195.055413612014
 20
1353.7993892192294
 10
6193.443174942242
 20
1355.794808949897
 10
6192.193699417443
 20
1358.0614281594362
 10
6191.326779946123
 20
1360.5709951134431
 10
6190.862209436787
 20
1363.2952580775138
 10
6190.819780797944
 20
1366.2059653172446
 10
6191.219286938098
 20
1369.2748650982307
 10
6192.080520765757
 20
1372.4737056860683
 10
6193.338571659428
 20
1375.6760621194958
 10
6194.971858817349
 20
1378.7540727628639
 10
6196.9419478607415
 20
1381.6783611546064
 10
6199.210404410834
 20
1384.4195508331602
 10
6201.738794088849
 20
1386.9482653369585
 10
6204.488682516016
 20
1389.2351282044394
 10
6207.421635313556
 20
1391.250762974036
 10
6210.499218102699
 20
1392.965793184184
 10
6213.682996504668
 20
1394.3508423733194
 10
6216.934536140689
 20
1395.3765340798773
 10
6220.215402631988
 20
1396.0134918422925
 10
6223.48716159979
 20
1396.2323391990012
 97
0
 75
0
 76
1
 98
0
  0
LWPOLYLINE
  5
BC
330
17
100
AcDbEntity
  8
Okvir
 62
7
100
AcDbPolyline
 90
49
 70
1
 10
6223.48716159979
 20
1396.2323391990012
 10
6226.613442181288
 20
1396.0134918422925
 10
6229.470754612861
 20
1395.3765340798773
 10
6232.041016448937
 20
1394.3508423733197
 10
6234.306145243944
 20
1392.9657931841843
 10
6236.248058552308
 20
1391.2507629740353
 10
6237.848673928458
 20
1389.2351282044394
 10
6239.089908926821
 20
1386.9482653369591
 10
6239.953681101825
 20
1384.4195508331597
 10
6240.4219080078965
 20
1381.6783611546064
 10
6240.476507199463
 20
1378.7540727628639
 10
6240.099396230954
 20
1375.6760621194962
 10
6239.272492656794
 20
1372.4737056860683
 10
6238.0143417555755
 20
1369.2748650982305
 10
6236.381018505902
 20
1366.2059653172446
 10
6234.410941069108
 20
1363.2952580775138
 10
6232.142527606528
 20
1360.5709951134436
 10
6229.614196279497
 20
1358.061428159436
 10
6226.864365249349
 20
1355.7948089498968
 10
6223.931452677419
 20
1353.7993892192299
 10
6220.853876725041
 20
1352.1034207018383
 10
6217.670055553549
 20
1350.7351551321267
 10
6214.418407324278
 20
1349.7228442444991
 10
6211.137350198562
 20
1349.0947397733594
 10
6207.8653023377365
 20
1348.879093453112
 10
6204.736141570697
 20
1349.0947397733592
 10
6201.870779406099
 20
1349.7228442444991
 10
6199.289008752448
 20
1350.7351551321265
 10
6197.010622518252
 20
1352.1034207018383
 10
6195.055413612014
 20
1353.7993892192294
 10
6193.443174942242
 20
1355.794808949897
 10
6192.193699417443
 20
1358.0614281594362
 10
6191.326779946123
 20
1360.5709951134431
 10
6190.862209436787
 20
1363.2952580775138
 10
6190.819780797944
 20
1366.2059653172446
 10
6191.219286938098
 20
1369.2748650982307
 10
6192.080520765757
 20
1372.4737056860683
 10
6193.338571659428
 20
1375.6760621194958
 10
6194.971858817349
 20
1378.7540727628639
 10
6196.9419478607415
 20
1381.6783611546064
 10
6199.210404410834
 20
1384.4195508331602
 10
6201.738794088849
 20
1386.9482653369585
 10
6204.488682516016
 20
1389.2351282044394
 10
6207.421635313556
 20
1391.250762974036
 10
6210.499218102699
 20
1392.965793184184
 10
6213.682996504668
 20
1394.3508423733194
 10
6216.934536140689
 20
1395.3765340798773
 10
6220.215402631988
 20
1396.0134918422925
 10
6223.48716159979
 20
1396.2323391990012
  0
HATCH
  5
BD
330
17
100
AcDbEntity
  8
Okvir
 62
7
100
AcDbHatch
 10
0.0
 20
0.0
 30
0.0
210
0.0
220
0.0
230
1.0
  2
SOLID
 70
1
 71
0
 91
1
 92
3
 72
0
 73
1
 93
49
 10
6146.6782216012925
 20
1337.6495427387626
 10
6149.807560442182
 20
1337.433917564785
 10
6152.673573848291
 20
1336.8058695366963
 10
6155.257056554821
 20
1335.7936398952631
 10
6157.538803296973
 20
1334.425469881252
 10
6159.499608809947
 20
1332.7296007354284
 10
6161.120267828945
 20
1330.7342736985606
 10
6162.381575089167
 20
1328.4677300114136
 10
6163.264325325816
 20
1325.9582109147536
 10
6163.749313274091
 20
1323.2339576493478
 10
6163.817333669193
 20
1320.3232114559626
 10
6163.449181246325
 20
1317.254213575364
 10
6162.625650740686
 20
1314.0552052483188
 10
6161.367441965466
 20
1310.8559913413724
 10
6159.734079921132
 20
1307.7867907427742
 10
6157.763978953151
 20
1304.8758475551917
 10
6155.495553406989
 20
1302.1514058812922
 10
6152.967217628111
 20
1299.6417098237428
 10
6150.217385961985
 20
1297.3750034852128
 10
6147.284472754077
 20
1295.3795309683683
 10
6144.206892349852
 20
1293.683536375877
 10
6141.023059094778
 20
1292.3152638104073
 10
6137.771387334319
 20
1291.302957374626
 10
6134.490291413943
 20
1290.674861171201
 10
6131.218185679116
 20
1290.4592193027997
 10
6128.088835867605
 20
1290.6748611712007
 10
6125.222791457567
 20
1291.302957374626
 10
6122.6392605757
 20
1292.3152638104075
 10
6120.3574513487065
 20
1293.683536375877
 10
6118.396571903285
 20
1295.3795309683678
 10
6116.775830366137
 20
1297.3750034852128
 10
6115.5144348639615
 20
1299.6417098237434
 10
6114.631593523459
 20
1302.1514058812918
 10
6114.14651447133
 20
1304.8758475551917
 10
6114.078405834274
 20
1307.7867907427742
 10
6114.446475738992
 20
1310.8559913413726
 10
6115.269932312184
 20
1314.0552052483188
 10
6116.528157304845
 20
1317.2542135753638
 10
6118.161564185631
 20
1320.3232114559628
 10
6120.131732885273
 20
1323.2339576493482
 10
6122.400243334503
 20
1325.9582109147536
 10
6124.928675464053
 20
1328.4677300114126
 10
6127.678609204654
 20
1330.7342736985602
 10
6130.611624487038
 20
1332.729600735429
 10
6133.689301241935
 20
1334.425469881252
 10
6136.873219400079
 20
1335.7936398952631
 10
6140.124958892198
 20
1336.8058695366963
 10
6143.406099649025
 20
1337.433917564785
 10
6146.6782216012925
 20
1337.6495427387626
 97
0
 75
0
 76
1
 98
0
  0
LWPOLYLINE
  5
BE
330
17
100
AcDbEntity
  8
Okvir
 62
7
100
AcDbPolyline
 90
49
 70
1
 10
6146.6782216012925
 20
1337.6495427387626
 10
6149.807560442182
 20
1337.433917564785
 10
6152.673573848291
 20
1336.8058695366963
 10
6155.257056554821
 20
1335.7936398952631
 10
6157.538803296973
 20
1334.425469881252
 10
6159.499608809947
 20
1332.7296007354284
 10
6161.120267828945
 20
1330.7342736985606
 10
6162.381575089167
 20
1328.4677300114136
 10
6163.264325325816
 20
1325.9582109147536
 10
6163.749313274091
 20
1323.2339576493478
 10
6163.817333669193
 20
1320.3232114559626
 10
6163.449181246325
 20
1317.254213575364
 10
6162.625650740686
 20
1314.0552052483188
 10
6161.367441965466
 20
1310.8559913413724
 10
6159.734079921132
 20
1307.7867907427742
 10
6157.763978953151
 20
1304.8758475551917
 10
6155.495553406989
 20
1302.1514058812922
 10
6152.967217628111
 20
1299.6417098237428
 10
6150.217385961985
 20
1297.3750034852128
 10
6147.284472754077
 20
1295.3795309683683
 10
6144.206892349852
 20
1293.683536375877
 10
6141.023059094778
 20
1292.3152638104073
 10
6137.771387334319
 20
1291.302957374626
 10
6134.490291413943
 20
1290.674861171201
 10
6131.218185679116
 20
1290.4592193027997
 10
6128.088835867605
 20
1290.6748611712007
 10
6125.222791457567
 20
1291.302957374626
 10
6122.6392605757
 20
1292.3152638104075
 10
6120.3574513487065
 20
1293.683536375877
 10
6118.396571903285
 20
1295.3795309683678
 10
6116.775830366137
 20
1297.3750034852128
 10
6115.5144348639615
 20
1299.6417098237434
 10
6114.631593523459
 20
1302.1514058812918
 10
6114.14651447133
 20
1304.8758475551917
 10
6114.078405834274
 20
1307.7867907427742
 10
6114.446475738992
 20
1310.8559913413726
 10
6115.269932312184
 20
1314.0552052483188
 10
6116.528157304845
 20
1317.2542135753638
 10
6118.161564185631
 20
1320.3232114559628
 10
6120.131732885273
 20
1323.2339576493482
 10
6122.400243334503
 20
1325.9582109147536
 10
6124.928675464053
 20
1328.4677300114126
 10
6127.678609204654
 20
1330.7342736985602
 10
6130.611624487038
 20
1332.729600735429
 10
6133.689301241935
 20
1334.425469881252
 10
6136.873219400079
 20
1335.7936398952631
 10
6140.124958892198
 20
1336.8058695366963
 10
6143.406099649025
 20
1337.433917564785
 10
6146.6782216012925
 20
1337.6495427387626
  0
HATCH
  5
BF
330
17
100
AcDbEntity
  8
Okvir
 62
7
100
AcDbHatch
 10
0.0
 20
0.0
 30
0.0
210
0.0
220
0.0
230
1.0
  2
SOLID
 70
1
 71
0
 91
1
 92
3
 72
0
 73
1
 93
138
 10
5963.603823124154
 20
1329.0253752706678
 10
5961.145891068078
 20
1323.5832662019375
 10
5958.193550321046
 20
1318.4276572897124
 10
5954.788048510685
 20
1313.5941400909358
 10
5950.970633264622
 20
1309.1183061625513
 10
5946.782552210483
 20
1305.0357470615015
 10
5942.265052975895
 20
1301.3820543447312
 10
5937.459383188485
 20
1298.1928195691837
 10
5932.406790475879
 20
1295.5036342918013
 10
5927.148522465703
 20
1293.3500900695285
 10
5921.725826785585
 20
1291.7677784593081
 10
5916.179951063151
 20
1290.7922910180841
 10
5910.552142926027
 20
1290.4592193027997
 10
5907.7076976021235
 20
1290.5369801785414
 10
5905.031017878897
 20
1290.7695193474415
 10
5902.520410464819
 20
1291.1557216220076
 10
5900.174182068364
 20
1291.6944718147513
 10
5897.9906393980045
 20
1292.3846547381822
 10
5895.968089162215
 20
1293.2251552048103
 10
5894.104838069467
 20
1294.2148580271453
 10
5892.399192828235
 20
1295.352648017697
 10
5890.849460146991
 20
1296.6374099889758
 10
5889.453946734208
 20
1298.0680287534913
 10
5888.210959298361
 20
1299.643389123753
 10
5887.118804547921
 20
1301.362375912272
 10
5886.026596375327
 20
1303.7764259606924
 10
5885.25590658198
 20
1306.221076410413
 10
5884.782432857092
 20
1308.699705258782
 10
5884.581872889879
 20
1311.2156905031513
 10
5884.629924369554
 20
1313.7724101408694
 10
5884.902284985329
 20
1316.3732421692887
 10
5885.374652426419
 20
1319.0215645857575
 10
5886.022724382035
 20
1321.7207553876262
 10
5886.822198541395
 20
1324.4741925722456
 10
5887.748772593708
 20
1327.2852541369657
 10
5888.778144228189
 20
1330.1573180791363
 10
5889.886011134053
 20
1333.0937623961072
 10
5889.886105258802
 20
1333.0970569213396
 10
5889.88676413205
 20
1333.106564634017
 10
5889.888552502293
 20
1333.1217217396081
 10
5889.892035118031
 20
1333.1419644435825
 10
5889.89777672776
 20
1333.1667289514075
 10
5889.906342079979
 20
1333.195451468555
 10
5889.918295923186
 20
1333.227568200492
 10
5889.934203005879
 20
1333.262515352688
 10
5889.954628076555
 20
1333.2997291306126
 10
5889.980135883713
 20
1333.3386457397346
 10
5890.011291175851
 20
1333.378701385523
 10
5890.048658701466
 20
1333.419332273447
 10
5891.350113983287
 20
1336.8374038717445
 10
5908.76329442699
 20
1380.6104799369475
 10
5910.715614720978
 20
1385.9811465717455
 10
5911.051338623676
 20
1386.6965757563662
 10
5911.40853823277
 20
1387.3798810542971
 10
5911.7883468611235
 20
1388.0327433554926
 10
5912.191897821602
 20
1388.6568435499091
 10
5912.620324427066
 20
1389.2538625275004
 10
5913.074759990384
 20
1389.8254811782226
 10
5913.556337824418
 20
1390.3733803920302
 10
5914.066191242033
 20
1390.8992410588778
 10
5914.605453556092
 20
1391.4047440687223
 10
5915.17525807946
 20
1391.8915703115165
 10
5915.7767381250005
 20
1392.3614006772168
 10
5916.411027005579
 20
1392.8159160557782
 10
5916.946621157307
 20
1393.1682989262047
 10
5917.494617834749
 20
1393.4930177059352
 10
5918.0538884948755
 20
1393.7895047845695
 10
5918.6233045946565
 20
1394.0571925517088
 10
5919.201737591064
 20
1394.2955133969529
 10
5919.788058941068
 20
1394.5038997099052
 10
5920.381140101641
 20
1394.6817838801649
 10
5920.979852529754
 20
1394.8285982973325
 10
5921.583067682378
 20
1394.9437753510097
 10
5922.189657016484
 20
1395.026747430797
 10
5922.798491989042
 20
1395.0769469262955
 10
5923.408444057025
 20
1395.093806227106
 10
5924.008204099961
 20
1395.0768531195347
 10
5924.585944675279
 20
1395.0259969767121
 10
5925.139965813683
 20
1394.9412425684723
 10
5925.668567545876
 20
1394.8225946646517
 10
5926.170049902562
 20
1394.6700580350841
 10
5926.642712914445
 20
1394.4836374496065
 10
5927.084856612228
 20
1394.2633376780534
 10
5927.494781026616
 20
1394.00916349026
 10
5927.870786188311
 20
1393.7211196560615
 10
5928.21117212802
 20
1393.3992109452936
 10
5928.5142388764425
 20
1393.0434421277914
 10
5928.778286464285
 20
1392.65381797339
 10
5929.0394834395665
 20
1392.236543878803
 10
5929.253772900669
 20
1391.797763550875
 10
5929.421720550059
 20
1391.3363589402143
 10
5929.543892090201
 20
1390.8512119974303
 10
5929.62085322356
 20
1390.34120467313
 10
5929.653169652601
 20
1389.8052189179243
 10
5929.641407079789
 20
1389.2421366824206
 10
5929.586131207589
 20
1388.650839917228
 10
5929.487907738467
 20
1388.0302105729556
 10
5929.347302374886
 20
1387.379130600212
 10
5929.164880819312
 20
1386.6964819496056
 10
5928.941208774211
 20
1385.9811465717455
 10
5926.825966170298
 20
1380.773127504361
 10
5926.825966170298
 20
1380.7730333796112
 10
5926.825966170298
 20
1380.7723745063638
 10
5926.825966170298
 20
1380.7705861361203
 10
5926.825966170298
 20
1380.7671035203832
 10
5926.825966170298
 20
1380.761361910653
 10
5926.825966170298
 20
1380.752796558434
 10
5926.825966170298
 20
1380.7408427152275
 10
5926.825966170298
 20
1380.7249356325349
 10
5926.825966170298
 20
1380.7045105618586
 10
5926.825966170298
 20
1380.6790027547002
 10
5926.825966170298
 20
1380.6478474625628
 10
5926.825966170298
 20
1380.6104799369475
 10
5919.340056931585
 20
1362.0604149764245
 10
5921.096105022294
 20
1362.8869579510358
 10
5922.865162361764
 20
1363.6564870844636
 10
5924.646661339596
 20
1364.3661700485145
 10
5926.440034345392
 20
1365.0131745149947
 10
5928.24471376875
 20
1365.5946681557102
 10
5930.060131999275
 20
1366.10781864247
 10
5931.885721426565
 20
1366.5497936470788
 10
5933.720914440221
 20
1366.9177608413436
 10
5935.565143429845
 20
1367.2088878970717
 10
5937.417840785038
 20
1367.4203424860686
 10
5939.278438895399
 20
1367.5492922801423
 10
5941.14637015053
 20
1367.5929049510987
 10
5946.3678361785605
 20
1367.2473974802485
 10
5951.0367253743125
 20
1366.2391213962908
 10
5955.136082881275
 20
1364.6104461921095
 10
5958.648953842938
 20
1362.403741360592
 10
5961.558383402789
 20
1359.6613763946234
 10
5963.84741670432
 20
1356.425720787092
 10
5965.499098891018
 20
1352.7391440308813
 10
5966.4964751063735
 20
1348.6440156188783
 10
5966.822590493875
 20
1344.1827050439695
 10
5966.460490197013
 20
1339.3975817990413
 10
5965.393219359276
 20
1334.3310153769783
 10
5963.603823124154
 20
1329.0253752706678
 97
0
 75
0
 76
1
 98
0
  0
LWPOLYLINE
  5
C0
330
17
100
AcDbEntity
  8
Okvir
 62
7
100
AcDbPolyline
 90
138
 70
1
 10
5963.603823124154
 20
1329.0253752706678
 10
5961.145891068078
 20
1323.5832662019375
 10
5958.193550321046
 20
1318.4276572897124
 10
5954.788048510685
 20
1313.5941400909358
 10
5950.970633264622
 20
1309.1183061625513
 10
5946.782552210483
 20
1305.0357470615015
 10
5942.265052975895
 20
1301.3820543447312
 10
5937.459383188485
 20
1298.1928195691837
 10
5932.406790475879
 20
1295.5036342918013
 10
5927.148522465703
 20
1293.3500900695285
 10
5921.725826785585
 20
1291.7677784593081
 10
5916.179951063151
 20
1290.7922910180841
 10
5910.552142926027
 20
1290.4592193027997
 10
5907.7076976021235
 20
1290.5369801785414
 10
5905.031017878897
 20
1290.7695193474415
 10
5902.520410464819
 20
1291.1557216220076
 10
5900.174182068364
 20
1291.6944718147513
 10
5897.9906393980045
 20
1292.3846547381822
 10
5895.968089162215
 20
1293.2251552048103
 10
5894.104838069467
 20
1294.2148580271453
 10
5892.399192828235
 20
1295.352648017697
 10
5890.849460146991
 20
1296.6374099889758
 10
5889.453946734208
 20
1298.0680287534913
 10
5888.210959298361
 20
1299.643389123753
 10
5887.118804547921
 20
1301.362375912272
 10
5886.026596375327
 20
1303.7764259606924
 10
5885.25590658198
 20
1306.221076410413
 10
5884.782432857092
 20
1308.699705258782
 10
5884.581872889879
 20
1311.2156905031513
 10
5884.629924369554
 20
1313.7724101408694
 10
5884.902284985329
 20
1316.3732421692887
 10
5885.374652426419
 20
1319.0215645857575
 10
5886.022724382035
 20
1321.7207553876262
 10
5886.822198541395
 20
1324.4741925722456
 10
5887.748772593708
 20
1327.2852541369657
 10
5888.778144228189
 20
1330.1573180791363
 10
5889.886011134053
 20
1333.0937623961072
 10
5889.886105258802
 20
1333.0970569213396
 10
5889.88676413205
 20
1333.106564634017
 10
5889.888552502293
 20
1333.1217217396081
 10
5889.892035118031
 20
1333.1419644435825
 10
5889.89777672776
 20
1333.1667289514075
 10
5889.906342079979
 20
1333.195451468555
 10
5889.918295923186
 20
1333.227568200492
 10
5889.934203005879
 20
1333.262515352688
 10
5889.954628076555
 20
1333.2997291306126
 10
5889.980135883713
 20
1333.3386457397346
 10
5890.011291175851
 20
1333.378701385523
 10
5890.048658701466
 20
1333.419332273447
 10
5891.350113983287
 20
1336.8374038717445
 10
5908.76329442699
 20
1380.6104799369475
 10
5910.715614720978
 20
1385.9811465717455
 10
5911.051338623676
 20
1386.6965757563662
 10
5911.40853823277
 20
1387.3798810542971
 10
5911.7883468611235
 20
1388.0327433554926
 10
5912.191897821602
 20
1388.6568435499091
 10
5912.620324427066
 20
1389.2538625275004
 10
5913.074759990384
 20
1389.8254811782226
 10
5913.556337824418
 20
1390.3733803920302
 10
5914.066191242033
 20
1390.8992410588778
 10
5914.605453556092
 20
1391.4047440687223
 10
5915.17525807946
 20
1391.8915703115165
 10
5915.7767381250005
 20
1392.3614006772168
 10
5916.411027005579
 20
1392.8159160557782
 10
5916.946621157307
 20
1393.1682989262047
 10
5917.494617834749
 20
1393.4930177059352
 10
5918.0538884948755
 20
1393.7895047845695
 10
5918.6233045946565
 20
1394.0571925517088
 10
5919.201737591064
 20
1394.2955133969529
 10
5919.788058941068
 20
1394.5038997099052
 10
5920.381140101641
 20
1394.6817838801649
 10
5920.979852529754
 20
1394.8285982973325
 10
5921.583067682378
 20
1394.9437753510097
 10
5922.189657016484
 20
1395.026747430797
 10
5922.798491989042
 20
1395.0769469262955
 10
5923.408444057025
 20
1395.093806227106
 10
5924.008204099961
 20
1395.0768531195347
 10
5924.585944675279
 20
1395.0259969767121
 10
5925.139965813683
 20
1394.9412425684723
 10
5925.668567545876
 20
1394.8225946646517
 10
5926.170049902562
 20
1394.6700580350841
 10
5926.642712914445
 20
1394.4836374496065
 10
5927.084856612228
 20
1394.2633376780534
 10
5927.494781026616
 20
1394.00916349026
 10
5927.870786188311
 20
1393.7211196560615
 10
5928.21117212802
 20
1393.3992109452936
 10
5928.5142388764425
 20
1393.0434421277914
 10
5928.778286464285
 20
1392.65381797339
 10
5929.0394834395665
 20
1392.236543878803
 10
5929.253772900669
 20
1391.797763550875
 10
5929.421720550059
 20
1391.3363589402143
 10
5929.543892090201
 20
1390.8512119974303
 10
5929.62085322356
 20
1390.34120467313
 10
5929.653169652601
 20
1389.8052189179243
 10
5929.641407079789
 20
1389.2421366824206
 10
5929.586131207589
 20
1388.650839917228
 10
5929.487907738467
 20
1388.0302105729556
 10
5929.347302374886
 20
1387.379130600212
 10
5929.164880819312
 20
1386.6964819496056
 10
5928.941208774211
 20
1385.9811465717455
 10
5926.825966170298
 20
1380.773127504361
 10
5926.825966170298
 20
1380.7730333796112
 10
5926.825966170298
 20
1380.7723745063638
 10
5926.825966170298
 20
1380.7705861361203
 10
5926.825966170298
 20
1380.7671035203832
 10
5926.825966170298
 20
1380.761361910653
 10
5926.825966170298
 20
1380.752796558434
 10
5926.825966170298
 20
1380.7408427152275
 10
5926.825966170298
 20
1380.7249356325349
 10
5926.825966170298
 20
1380.7045105618586
 10
5926.825966170298
 20
1380.6790027547002
 10
5926.825966170298
 20
1380.6478474625628
 10
5926.825966170298
 20
1380.6104799369475
 10
5919.340056931585
 20
1362.0604149764245
 10
5921.096105022294
 20
1362.8869579510358
 10
5922.865162361764
 20
1363.6564870844636
 10
5924.646661339596
 20
1364.3661700485145
 10
5926.440034345392
 20
1365.0131745149947
 10
5928.24471376875
 20
1365.5946681557102
 10
5930.060131999275
 20
1366.10781864247
 10
5931.885721426565
 20
1366.5497936470788
 10
5933.720914440221
 20
1366.9177608413436
 10
5935.565143429845
 20
1367.2088878970717
 10
5937.417840785038
 20
1367.4203424860686
 10
5939.278438895399
 20
1367.5492922801423
 10
5941.14637015053
 20
1367.5929049510987
 10
5946.3678361785605
 20
1367.2473974802485
 10
5951.0367253743125
 20
1366.2391213962908
 10
5955.136082881275
 20
1364.6104461921095
 10
5958.648953842938
 20
1362.403741360592
 10
5961.558383402789
 20
1359.6613763946234
 10
5963.84741670432
 20
1356.425720787092
 10
5965.499098891018
 20
1352.7391440308813
 10
5966.4964751063735
 20
1348.6440156188783
 10
5966.822590493875
 20
1344.1827050439695
 10
5966.460490197013
 20
1339.3975817990413
 10
5965.393219359276
 20
1334.3310153769783
 10
5963.603823124154
 20
1329.0253752706678
  0
HATCH
  5
C1
330
17
100
AcDbEntity
  8
Okvir
 62
7
100
AcDbHatch
 10
0.0
 20
0.0
 30
0.0
210
0.0
220
0.0
230
1.0
  2
SOLID
 70
1
 71
0
 91
1
 92
3
 72
0
 73
1
 93
49
 10
5945.540327153309
 20
1329.0253752706678
 10
5946.53109778277
 20
1331.8903561664315
 10
5947.14782651474
 20
1334.6128620821778
 10
5947.396165604032
 20
1337.172563979912
 10
5947.281767305462
 20
1339.5491328216435
 10
5946.810283873846
 20
1341.7222395693777
 10
5945.987367563997
 20
1343.6715551851244
 10
5944.818670630732
 20
1345.3767506308895
 10
5943.309845328865
 20
1346.8174968686803
 10
5941.4665439132095
 20
1347.9734648605047
 10
5939.294418638582
 20
1348.8243255683706
 10
5936.799121759797
 20
1349.3497499542843
 10
5933.98630553167
 20
1349.5294089802537
 10
5931.033577474012
 20
1349.3435009930745
 10
5928.128851130748
 20
1348.801602073064
 10
5925.293031735972
 20
1347.927449782509
 10
5922.547024523779
 20
1346.744781683699
 10
5919.9117347282645
 20
1345.2773353389225
 10
5917.408067583524
 20
1343.5488483104689
 10
5915.056928323653
 20
1341.5830581606251
 10
5912.879222182744
 20
1339.4037024516808
 10
5910.895854394897
 20
1337.0345187459245
 10
5909.127730194204
 20
1334.4992446056444
 10
5907.59575481476
 20
1331.8216175931298
 10
5906.320833490661
 20
1329.0253752706678
 10
5905.196416051325
 20
1325.6447430635037
 10
5904.566424474352
 20
1322.5794580226927
 10
5904.396382390288
 20
1319.8261202096414
 10
5904.651813429679
 20
1317.381329685759
 10
5905.298241223073
 20
1315.241686512451
 10
5906.301189401016
 20
1313.403790751127
 10
5907.626181594054
 20
1311.864242463193
 10
5909.238741432736
 20
1310.6196417100573
 10
5911.104392547605
 20
1309.6665885531265
 10
5913.18865856921
 20
1309.0016830538098
 10
5915.457063128098
 20
1308.6215252735128
 10
5917.875129854813
 20
1308.5227152736445
 10
5920.371106435126
 20
1308.6713070904345
 10
5922.953020183836
 20
1309.114823546814
 10
5925.584696670126
 20
1309.8498761517935
 10
5928.229961463181
 20
1310.8730764143866
 10
5930.852640132186
 20
1312.1810358436044
 10
5933.416558246326
 20
1313.7703659484605
 10
5935.885541374783
 20
1315.6376782379664
 10
5938.223415086744
 20
1317.7795842211337
 10
5940.394004951393
 20
1320.1926954069754
 10
5942.361136537914
 20
1322.8736233045036
 10
5944.088635415491
 20
1325.8189794227305
 10
5945.540327153309
 20
1329.0253752706678
 97
0
 75
0
 76
1
 98
0
  0
LWPOLYLINE
  5
C2
330
17
100
AcDbEntity
  8
Okvir
 62
7
100
AcDbPolyline
 90
49
 70
1
 10
5945.540327153309
 20
1329.0253752706678
 10
5946.53109778277
 20
1331.8903561664315
 10
5947.14782651474
 20
1334.6128620821778
 10
5947.396165604032
 20
1337.172563979912
 10
5947.281767305462
 20
1339.5491328216435
 10
5946.810283873846
 20
1341.7222395693777
 10
5945.987367563997
 20
1343.6715551851244
 10
5944.818670630732
 20
1345.3767506308895
 10
5943.309845328865
 20
1346.8174968686803
 10
5941.4665439132095
 20
1347.9734648605047
 10
5939.294418638582
 20
1348.8243255683706
 10
5936.799121759797
 20
1349.3497499542843
 10
5933.98630553167
 20
1349.5294089802537
 10
5931.033577474012
 20
1349.3435009930745
 10
5928.128851130748
 20
1348.801602073064
 10
5925.293031735972
 20
1347.927449782509
 10
5922.547024523779
 20
1346.744781683699
 10
5919.9117347282645
 20
1345.2773353389225
 10
5917.408067583524
 20
1343.5488483104689
 10
5915.056928323653
 20
1341.5830581606251
 10
5912.879222182744
 20
1339.4037024516808
 10
5910.895854394897
 20
1337.0345187459245
 10
5909.127730194204
 20
1334.4992446056444
 10
5907.59575481476
 20
1331.8216175931298
 10
5906.320833490661
 20
1329.0253752706678
 10
5905.196416051325
 20
1325.6447430635037
 10
5904.566424474352
 20
1322.5794580226927
 10
5904.396382390288
 20
1319.8261202096414
 10
5904.651813429679
 20
1317.381329685759
 10
5905.298241223073
 20
1315.241686512451
 10
5906.301189401016
 20
1313.403790751127
 10
5907.626181594054
 20
1311.864242463193
 10
5909.238741432736
 20
1310.6196417100573
 10
5911.104392547605
 20
1309.6665885531265
 10
5913.18865856921
 20
1309.0016830538098
 10
5915.457063128098
 20
1308.6215252735128
 10
5917.875129854813
 20
1308.5227152736445
 10
5920.371106435126
 20
1308.6713070904345
 10
5922.953020183836
 20
1309.114823546814
 10
5925.584696670126
 20
1309.8498761517935
 10
5928.229961463181
 20
1310.8730764143866
 10
5930.852640132186
 20
1312.1810358436044
 10
5933.416558246326
 20
1313.7703659484605
 10
5935.885541374783
 20
1315.6376782379664
 10
5938.223415086744
 20
1317.7795842211337
 10
5940.394004951393
 20
1320.1926954069754
 10
5942.361136537914
 20
1322.8736233045036
 10
5944.088635415491
 20
1325.8189794227305
 10
5945.540327153309
 20
1329.0253752706678
  0
HATCH
  5
C3
330
17
100
AcDbEntity
  8
Okvir
 62
7
100
AcDbHatch
 10
0.0
 20
0.0
 30
0.0
210
0.0
220
0.0
230
1.0
  2
SOLID
 70
1
 71
0
 91
1
 92
3
 72
0
 73
1
 93
201
 10
6028.046327891481
 20
1367.5929049510987
 10
6026.215857968726
 20
1367.5492922801418
 10
6024.387071797827
 20
1367.4203424860689
 10
6022.561664578245
 20
1367.2088878970712
 10
6020.741331509441
 20
1366.9177608413438
 10
6018.927767790876
 20
1366.549793647078
 10
6017.122668622012
 20
1366.10781864247
 10
6015.327729202309
 20
1365.5946681557107
 10
6013.544644731227
 20
1365.013174514994
 10
6011.775110408228
 20
1364.3661700485143
 10
6010.020821432773
 20
1363.6564870844636
 10
6008.283473004323
 20
1362.886957951036
 10
6006.564760322339
 20
1362.0604149764245
 10
6008.517904843864
 20
1367.2681593012965
 10
6016.491207299792
 20
1387.1205037711782
 10
6016.752215866579
 20
1387.8017872949256
 10
6016.965186468225
 20
1388.4622037432598
 10
6017.129554356232
 20
1389.1011826438807
 10
6017.244754782102
 20
1389.7181535244881
 10
6017.310222997337
 20
1390.3125459127812
 10
6017.325394253439
 20
1390.8837893364607
 10
6017.289703801911
 20
1391.431313323226
 10
6017.202586894254
 20
1391.9545474007762
 10
6017.06347878197
 20
1392.4529210968112
 10
6016.871814716562
 20
1392.925863939031
 10
6016.62702994953
 20
1393.3728054551348
 10
6016.328559732378
 20
1393.7931751728224
 10
6016.064523115157
 20
1394.1827831097835
 10
6015.7614873706625
 20
1394.5385070908346
 10
6015.421149606292
 20
1394.8603480699414
 10
6015.045206929438
 20
1395.148307001072
 10
6014.635356447497
 20
1395.4023848381921
 10
6014.193295267864
 20
1395.6225825352706
 10
6013.720720497934
 20
1395.8089010462736
 10
6013.219329245102
 20
1395.9613413251673
 10
6012.690818616763
 20
1396.0799043259206
 10
6012.136885720312
 20
1396.1645910024988
 10
6011.559227663145
 20
1396.21540230887
 10
6010.9595415526555
 20
1396.2323391990012
 10
6010.352448364949
 20
1396.2154964336191
 10
6009.751605569402
 20
1396.1653440004961
 10
6009.156440785781
 20
1396.082445694161
 10
6008.566381633852
 20
1395.9673653091459
 10
6007.980855733378
 20
1395.8206666399803
 10
6007.399290704127
 20
1395.6429134811972
 10
6006.821114165864
 20
1395.434669627326
 10
6006.245753738353
 20
1395.196498872898
 10
6005.672637041363
 20
1394.928965012444
 10
6005.101191694656
 20
1394.632631840495
 10
6004.530845318
 20
1394.3080631515822
 10
6003.961025531159
 20
1393.955822740236
 10
6003.326846674781
 20
1393.4980854969326
 10
6002.726068113017
 20
1393.0199886886912
 10
6002.1581136497625
 20
1392.521538039313
 10
6001.622407088915
 20
1392.002739272602
 10
6001.118372234372
 20
1391.463598112359
 10
6000.645432890033
 20
1390.9041202823878
 10
6000.203012859792
 20
1390.324311506489
 10
5999.790535947547
 20
1389.724177508466
 10
5999.407425957197
 20
1389.1037240121213
 10
5999.053106692638
 20
1388.462956741257
 10
5998.727001957768
 20
1387.801881419675
 10
5998.428535556484
 20
1387.1205037711782
 10
5963.76674543408
 20
1299.4084071632092
 10
5963.508785269025
 20
1298.7269350719732
 10
5963.303965838901
 20
1298.0664807829467
 10
5963.1511547848095
 20
1297.4275823335465
 10
5963.049219747856
 20
1296.8107777611967
 10
5962.997028369142
 20
1296.2166051033146
 10
5962.99344828977
 20
1295.645602397323
 10
5963.037347150844
 20
1295.098307680641
 10
5963.127592593465
 20
1294.575258990689
 10
5963.263052258739
 20
1294.076994364888
 10
5963.442593787766
 20
1293.6040518406571
 10
5963.6650848216495
 20
1293.1569694554175
 10
5963.929393001494
 20
1292.73628524659
 10
5964.227765755011
 20
1292.3839185936026
 10
5964.553214955518
 20
1292.0592446503247
 10
5964.90575491252
 20
1291.7628253033517
 10
5965.285399935524
 20
1291.495222439281
 10
5965.692164334033
 20
1291.256997944708
 10
5966.126062417557
 20
1291.0487137062316
 10
5966.587108495598
 20
1290.870931610448
 10
5967.075316877665
 20
1290.7242135439524
 10
5967.5907018732605
 20
1290.6091213933435
 10
5968.133277791893
 20
1290.526217045217
 10
5968.703058943069
 20
1290.4760623861705
 10
5969.300059636292
 20
1290.4592193027997
 10
5969.875938226908
 20
1290.4760623861698
 10
5970.463122281121
 20
1290.5262170452174
 10
5971.059351850973
 20
1290.6091213933432
 10
5971.662366988504
 20
1290.7242135439524
 10
5972.269907745755
 20
1290.8709316104473
 10
5972.879714174766
 20
1291.0487137062316
 10
5973.489526327581
 20
1291.2569979447085
 10
5974.097084256239
 20
1291.4952224392807
 10
5974.7001280127815
 20
1291.7628253033517
 10
5975.296397649249
 20
1292.0592446503247
 10
5975.883633217684
 20
1292.3839185936029
 10
5976.459574770127
 20
1292.73628524659
 10
5977.056338720525
 20
1293.1569694554173
 10
5977.625950860536
 20
1293.604051840657
 10
5978.168413098095
 20
1294.0769943648875
 10
5978.683727341135
 20
1294.575258990689
 10
5979.1718954975895
 20
1295.0983076806408
 10
5979.632919475394
 20
1295.6456023973233
 10
5980.066801182483
 20
1296.216605103315
 10
5980.473542526789
 20
1296.8107777611965
 10
5980.853145416248
 20
1297.427582333547
 10
5981.205611758792
 20
1298.066480782946
 10
5981.530943462356
 20
1298.7269350719737
 10
5981.8291424348745
 20
1299.4084071632092
 10
5994.522795998459
 20
1331.6288353193352
 10
5995.896212513297
 20
1334.1346811658402
 10
5997.48148794017
 20
1336.5145318132438
 10
5999.259983670711
 20
1338.7508695644694
 10
6001.213061096553
 20
1340.8261767224444
 10
6003.32208160933
 20
1342.7229355900927
 10
6005.568406600674
 20
1344.4236284703416
 10
6007.933397462219
 20
1345.9107376661157
 10
6010.398415585598
 20
1347.1667454803398
 10
6012.944822362442
 20
1348.1741342159403
 10
6015.553979184388
 20
1348.9153861758423
 10
6018.207247443065
 20
1349.3729836629716
 10
6020.885988530109
 20
1349.5294089802537
 10
6023.7331445514055
 20
1349.349749954284
 10
6026.251498654973
 20
1348.8243255683706
 10
6028.437647086349
 20
1347.9734648605047
 10
6030.288186091074
 20
1346.8174968686799
 10
6031.799711914687
 20
1345.3767506308886
 10
6032.968820802726
 20
1343.6715551851244
 10
6033.792109000733
 20
1341.7222395693782
 10
6034.2661727542445
 20
1339.549132821643
 10
6034.387608308802
 20
1337.172563979912
 10
6034.153011909943
 20
1334.6128620821773
 10
6033.558979803208
 20
1331.890356166432
 10
6032.602108234137
 20
1329.0253752706678
 10
6032.602108234137
 20
1329.0253752706678
 10
6021.210734179911
 20
1299.5710547306226
 10
6020.953004874884
 20
1298.852310351483
 10
6020.748336171555
 20
1298.1613674342968
 10
6020.595607158631
 20
1297.4987706942525
 10
6020.49369692482
 20
1296.8650648465416
 10
6020.441484558831
 20
1296.2607946063517
 10
6020.43784914937
 20
1295.686504688875
 10
6020.481669785145
 20
1295.1427398093
 10
6020.571825554863
 20
1294.630044682816
 10
6020.707195547233
 20
1294.1489640246136
 10
6020.886658850961
 20
1293.700042549882
 10
6021.109094554756
 20
1293.283824973811
 10
6021.373381747324
 20
1292.9008560115908
 10
6021.671843696762
 20
1292.5106799872465
 10
6021.997413574101
 20
1292.1544823615527
 10
6022.350091379343
 20
1291.8322535948366
 10
6022.729877112488
 20
1291.543984147429
 10
6023.1367707735335
 20
1291.2896644796592
 10
6023.570772362483
 20
1291.0692850518567
 10
6024.031881879334
 20
1290.8828363243513
 10
6024.520099324087
 20
1290.730308757471
 10
6025.035424696743
 20
1290.6116928115462
 10
6025.5778579973
 20
1290.5269789469066
 10
6026.14739922576
 20
1290.4761576238816
 10
6026.744048382123
 20
1290.4592193027997
 10
6027.354251820425
 20
1290.4761576238814
 10
6027.964457166661
 20
1290.526978946907
 10
6028.574666328766
 20
1290.6116928115462
 10
6029.184881214674
 20
1290.7303087574712
 10
6029.795103732316
 20
1290.8828363243508
 10
6030.405335789631
 20
1291.0692850518567
 10
6031.01557929455
 20
1291.2896644796595
 10
6031.625836155007
 20
1291.543984147429
 10
6032.236108278938
 20
1291.8322535948366
 10
6032.846397574276
 20
1292.1544823615525
 10
6033.456705948955
 20
1292.510679987247
 10
6034.067035310908
 20
1292.9008560115908
 10
6034.663595112356
 20
1293.283824973811
 10
6035.232487961206
 20
1293.700042549882
 10
6035.773143385158
 20
1294.1489640246132
 10
6036.284990911911
 20
1294.630044682816
 10
6036.767460069165
 20
1295.1427398092992
 10
6037.2199803846215
 20
1295.6865046888747
 10
6037.6419813859775
 20
1296.260794606352
 10
6038.032892600934
 20
1296.8650648465411
 10
6038.39214355719
 20
1297.498770694253
 10
6038.719163782446
 20
1298.1613674342966
 10
6039.013382804401
 20
1298.852310351483
 10
6039.274230150755
 20
1299.5710547306226
 10
6050.666428432519
 20
1329.0253752706678
 10
6050.666428432519
 20
1329.0253752706678
 10
6052.421505543757
 20
1334.3310153769783
 10
6053.465772260878
 20
1339.3975817990413
 10
6053.8139215844985
 20
1344.1827050439697
 10
6053.480646515237
 20
1348.644015618879
 10
6052.480640053709
 20
1352.7391440308809
 10
6050.828595200535
 20
1356.4257207870917
 10
6048.539204956331
 20
1359.6613763946243
 10
6045.627162321714
 20
1362.403741360592
 10
6042.107160297304
 20
1364.61044619211
 10
6037.993891883716
 20
1366.2391213962906
 10
6033.302050081569
 20
1367.2473974802488
 10
6028.046327891481
 20
1367.5929049510987
 97
0
 75
0
 76
1
 98
0
  0
LWPOLYLINE
  5
C4
330
17
100
AcDbEntity
  8
Okvir
 62
7
100
AcDbPolyline
 90
201
 70
1
 10
6028.046327891481
 20
1367.5929049510987
 10
6026.215857968726
 20
1367.5492922801418
 10
6024.387071797827
 20
1367.4203424860689
 10
6022.561664578245
 20
1367.2088878970712
 10
6020.741331509441
 20
1366.9177608413438
 10
6018.927767790876
 20
1366.549793647078
 10
6017.122668622012
 20
1366.10781864247
 10
6015.327729202309
 20
1365.5946681557107
 10
6013.544644731227
 20
1365.013174514994
 10
6011.775110408228
 20
1364.3661700485143
 10
6010.020821432773
 20
1363.6564870844636
 10
6008.283473004323
 20
1362.886957951036
 10
6006.564760322339
 20
1362.0604149764245
 10
6008.517904843864
 20
1367.2681593012965
 10
6016.491207299792
 20
1387.1205037711782
 10
6016.752215866579
 20
1387.8017872949256
 10
6016.965186468225
 20
1388.4622037432598
 10
6017.129554356232
 20
1389.1011826438807
 10
6017.244754782102
 20
1389.7181535244881
 10
6017.310222997337
 20
1390.3125459127812
 10
6017.325394253439
 20
1390.8837893364607
 10
6017.289703801911
 20
1391.431313323226
 10
6017.202586894254
 20
1391.9545474007762
 10
6017.06347878197
 20
1392.4529210968112
 10
6016.871814716562
 20
1392.925863939031
 10
6016.62702994953
 20
1393.3728054551348
 10
6016.328559732378
 20
1393.7931751728224
 10
6016.064523115157
 20
1394.1827831097835
 10
6015.7614873706625
 20
1394.5385070908346
 10
6015.421149606292
 20
1394.8603480699414
 10
6015.045206929438
 20
1395.148307001072
 10
6014.635356447497
 20
1395.4023848381921
 10
6014.193295267864
 20
1395.6225825352706
 10
6013.720720497934
 20
1395.8089010462736
 10
6013.219329245102
 20
1395.9613413251673
 10
6012.690818616763
 20
1396.0799043259206
 10
6012.136885720312
 20
1396.1645910024988
 10
6011.559227663145
 20
1396.21540230887
 10
6010.9595415526555
 20
1396.2323391990012
 10
6010.352448364949
 20
1396.2154964336191
 10
6009.751605569402
 20
1396.1653440004961
 10
6009.156440785781
 20
1396.082445694161
 10
6008.566381633852
 20
1395.9673653091459
 10
6007.980855733378
 20
1395.8206666399803
 10
6007.399290704127
 20
1395.6429134811972
 10
6006.821114165864
 20
1395.434669627326
 10
6006.245753738353
 20
1395.196498872898
 10
6005.672637041363
 20
1394.928965012444
 10
6005.101191694656
 20
1394.632631840495
 10
6004.530845318
 20
1394.3080631515822
 10
6003.961025531159
 20
1393.955822740236
 10
6003.326846674781
 20
1393.4980854969326
 10
6002.726068113017
 20
1393.0199886886912
 10
6002.1581136497625
 20
1392.521538039313
 10
6001.622407088915
 20
1392.002739272602
 10
6001.118372234372
 20
1391.463598112359
 10
6000.645432890033
 20
1390.9041202823878
 10
6000.203012859792
 20
1390.324311506489
 10
5999.790535947547
 20
1389.724177508466
 10
5999.407425957197
 20
1389.1037240121213
 10
5999.053106692638
 20
1388.462956741257
 10
5998.727001957768
 20
1387.801881419675
 10
5998.428535556484
 20
1387.1205037711782
 10
5963.76674543408
 20
1299.4084071632092
 10
5963.508785269025
 20
1298.7269350719732
 10
5963.303965838901
 20
1298.0664807829467
 10
5963.1511547848095
 20
1297.4275823335465
 10
5963.049219747856
 20
1296.8107777611967
 10
5962.997028369142
 20
1296.2166051033146
 10
5962.99344828977
 20
1295.645602397323
 10
5963.037347150844
 20
1295.098307680641
 10
5963.127592593465
 20
1294.575258990689
 10
5963.263052258739
 20
1294.076994364888
 10
5963.442593787766
 20
1293.6040518406571
 10
5963.6650848216495
 20
1293.1569694554175
 10
5963.929393001494
 20
1292.73628524659
 10
5964.227765755011
 20
1292.3839185936026
 10
5964.553214955518
 20
1292.0592446503247
 10
5964.90575491252
 20
1291.7628253033517
 10
5965.285399935524
 20
1291.495222439281
 10
5965.692164334033
 20
1291.256997944708
 10
5966.126062417557
 20
1291.0487137062316
 10
5966.587108495598
 20
1290.870931610448
 10
5967.075316877665
 20
1290.7242135439524
 10
5967.5907018732605
 20
1290.6091213933435
 10
5968.133277791893
 20
1290.526217045217
 10
5968.703058943069
 20
1290.4760623861705
 10
5969.300059636292
 20
1290.4592193027997
 10
5969.875938226908
 20
1290.4760623861698
 10
5970.463122281121
 20
1290.5262170452174
 10
5971.059351850973
 20
1290.6091213933432
 10
5971.662366988504
 20
1290.7242135439524
 10
5972.269907745755
 20
1290.8709316104473
 10
5972.879714174766
 20
1291.0487137062316
 10
5973.489526327581
 20
1291.2569979447085
 10
5974.097084256239
 20
1291.4952224392807
 10
5974.7001280127815
 20
1291.7628253033517
 10
5975.296397649249
 20
1292.0592446503247
 10
5975.883633217684
 20
1292.3839185936029
 10
5976.459574770127
 20
1292.73628524659
 10
5977.056338720525
 20
1293.1569694554173
 10
5977.625950860536
 20
1293.604051840657
 10
5978.168413098095
 20
1294.0769943648875
 10
5978.683727341135
 20
1294.575258990689
 10
5979.1718954975895
 20
1295.0983076806408
 10
5979.632919475394
 20
1295.6456023973233
 10
5980.066801182483
 20
1296.216605103315
 10
5980.473542526789
 20
1296.8107777611965
 10
5980.853145416248
 20
1297.427582333547
 10
5981.205611758792
 20
1298.066480782946
 10
5981.530943462356
 20
1298.7269350719737
 10
5981.8291424348745
 20
1299.4084071632092
 10
5994.522795998459
 20
1331.6288353193352
 10
5995.896212513297
 20
1334.1346811658402
 10
5997.48148794017
 20
1336.5145318132438
 10
5999.259983670711
 20
1338.7508695644694
 10
6001.213061096553
 20
1340.8261767224444
 10
6003.32208160933
 20
1342.7229355900927
 10
6005.568406600674
 20
1344.4236284703416
 10
6007.933397462219
 20
1345.9107376661157
 10
6010.398415585598
 20
1347.1667454803398
 10
6012.944822362442
 20
1348.1741342159403
 10
6015.553979184388
 20
1348.9153861758423
 10
6018.207247443065
 20
1349.3729836629716
 10
6020.885988530109
 20
1349.5294089802537
 10
6023.7331445514055
 20
1349.349749954284
 10
6026.251498654973
 20
1348.8243255683706
 10
6028.437647086349
 20
1347.9734648605047
 10
6030.288186091074
 20
1346.8174968686799
 10
6031.799711914687
 20
1345.3767506308886
 10
6032.968820802726
 20
1343.6715551851244
 10
6033.792109000733
 20
1341.7222395693782
 10
6034.2661727542445
 20
1339.549132821643
 10
6034.387608308802
 20
1337.172563979912
 10
6034.153011909943
 20
1334.6128620821773
 10
6033.558979803208
 20
1331.890356166432
 10
6032.602108234137
 20
1329.0253752706678
 10
6032.602108234137
 20
1329.0253752706678
 10
6021.210734179911
 20
1299.5710547306226
 10
6020.953004874884
 20
1298.852310351483
 10
6020.748336171555
 20
1298.1613674342968
 10
6020.595607158631
 20
1297.4987706942525
 10
6020.49369692482
 20
1296.8650648465416
 10
6020.441484558831
 20
1296.2607946063517
 10
6020.43784914937
 20
1295.686504688875
 10
6020.481669785145
 20
1295.1427398093
 10
6020.571825554863
 20
1294.630044682816
 10
6020.707195547233
 20
1294.1489640246136
 10
6020.886658850961
 20
1293.700042549882
 10
6021.109094554756
 20
1293.283824973811
 10
6021.373381747324
 20
1292.9008560115908
 10
6021.671843696762
 20
1292.5106799872465
 10
6021.997413574101
 20
1292.1544823615527
 10
6022.350091379343
 20
1291.8322535948366
 10
6022.729877112488
 20
1291.543984147429
 10
6023.1367707735335
 20
1291.2896644796592
 10
6023.570772362483
 20
1291.0692850518567
 10
6024.031881879334
 20
1290.8828363243513
 10
6024.520099324087
 20
1290.730308757471
 10
6025.035424696743
 20
1290.6116928115462
 10
6025.5778579973
 20
1290.5269789469066
 10
6026.14739922576
 20
1290.4761576238816
 10
6026.744048382123
 20
1290.4592193027997
 10
6027.354251820425
 20
1290.4761576238814
 10
6027.964457166661
 20
1290.526978946907
 10
6028.574666328766
 20
1290.6116928115462
 10
6029.184881214674
 20
1290.7303087574712
 10
6029.795103732316
 20
1290.8828363243508
 10
6030.405335789631
 20
1291.0692850518567
 10
6031.01557929455
 20
1291.2896644796595
 10
6031.625836155007
 20
1291.543984147429
 10
6032.236108278938
 20
1291.8322535948366
 10
6032.846397574276
 20
1292.1544823615525
 10
6033.456705948955
 20
1292.510679987247
 10
6034.067035310908
 20
1292.9008560115908
 10
6034.663595112356
 20
1293.283824973811
 10
6035.232487961206
 20
1293.700042549882
 10
6035.773143385158
 20
1294.1489640246132
 10
6036.284990911911
 20
1294.630044682816
 10
6036.767460069165
 20
1295.1427398092992
 10
6037.2199803846215
 20
1295.6865046888747
 10
6037.6419813859775
 20
1296.260794606352
 10
6038.032892600934
 20
1296.8650648465411
 10
6038.39214355719
 20
1297.498770694253
 10
6038.719163782446
 20
1298.1613674342966
 10
6039.013382804401
 20
1298.852310351483
 10
6039.274230150755
 20
1299.5710547306226
 10
6050.666428432519
 20
1329.0253752706678
 10
6050.666428432519
 20
1329.0253752706678
 10
6052.421505543757
 20
1334.3310153769783
 10
6053.465772260878
 20
1339.3975817990413
 10
6053.8139215844985
 20
1344.1827050439697
 10
6053.480646515237
 20
1348.644015618879
 10
6052.480640053709
 20
1352.7391440308809
 10
6050.828595200535
 20
1356.4257207870917
 10
6048.539204956331
 20
1359.6613763946243
 10
6045.627162321714
 20
1362.403741360592
 10
6042.107160297304
 20
1364.61044619211
 10
6037.993891883716
 20
1366.2391213962906
 10
6033.302050081569
 20
1367.2473974802488
 10
6028.046327891481
 20
1367.5929049510987
  0
TEXT
  5
C5
330
17
100
AcDbEntity
  8
Tekst
 62
7
100
AcDbText
 10
6375.0
 20
1335.0
 30
0.0
 40
75.0
  1
BH TELECOM d.d. SARAJEVO
  7
20
 11
6375.0
 21
1335.0
 31
0.0
100
AcDbText
  0
TEXT
  5
C6
330
17
100
AcDbEntity
  8
Okvir
 62
8
100
AcDbText
 10
6375.0
 20
1240.0
 30
0.0
 40
55.00000000000001
  1
Izvršna direkcija za tehnologiju i razvoj servisa
  7
20
 11
6375.0
 21
1240.0
 31
0.0
100
AcDbText
  0
TEXT
  5
C7
330
17
100
AcDbEntity
  8
Okvir
 62
8
100
AcDbText
 10
5825.0
 20
1135.0
 30
0.0
 40
47.5
  1
Investitor:
  7
20
 11
5825.0
 21
1135.0
 31
0.0
100
AcDbText
  0
TEXT
  5
C8
330
17
100
AcDbEntity
  8
Tekst
 62
7
100
AcDbText
 10
5825.0
 20
1040.0
 30
0.0
 40
65.0
  1
BH Telecom d.d. Sarajevo, Franca Lehara 7, Sarajevo
  7
20
 11
5825.0
 21
1040.0
 31
0.0
100
AcDbText
  0
TEXT
  5
C9
330
17
100
AcDbEntity
  8
Okvir
 62
8
100
AcDbText
 10
5825.0
 20
935.0
 30
0.0
 40
47.5
  1
Objekat:
  7
20
 11
5825.0
 21
935.0
 31
0.0
100
AcDbText
  0
TEXT
  5
CA
330
17
100
AcDbEntity
  8
Tekst
 62
7
100
AcDbText
 10
5825.0
 20
840.0
 30
0.0
 40
65.0
  1
BS SJEDNICA (Bileća) — autonomni hibridni sistem napajanja
  7
20
 11
5825.0
 21
840.0
 31
0.0
100
AcDbText
  0
TEXT
  5
CB
330
17
100
AcDbEntity
  8
Okvir
 62
8
100
AcDbText
 10
5825.0
 20
735.0
 30
0.0
 40
47.5
  1
Faza:
  7
20
 11
5825.0
 21
735.0
 31
0.0
100
AcDbText
  0
TEXT
  5
CC
330
17
100
AcDbEntity
  8
Tekst
 62
7
100
AcDbText
 10
5825.0
 20
640.0
 30
0.0
 40
65.0
  1
Tenderska dokumentacija — Prilog III
  7
20
 11
5825.0
 21
640.0
 31
0.0
100
AcDbText
  0
TEXT
  5
CD
330
17
100
AcDbEntity
  8
Okvir
 62
8
100
AcDbText
 10
8775.0
 20
735.0
 30
0.0
 40
47.5
  1
šifra projekta:
  7
20
 11
8775.0
 21
735.0
 31
0.0
100
AcDbText
  0
TEXT
  5
CE
330
17
100
AcDbEntity
  8
Tekst
 62
7
100
AcDbText
 10
8775.0
 20
640.0
 30
0.0
 40
65.0
  1
BHT-SJEDNICA-2026
  7
20
 11
8775.0
 21
640.0
 31
0.0
100
AcDbText
  0
TEXT
  5
CF
330
17
100
AcDbEntity
  8
Okvir
 62
8
100
AcDbText
 10
5825.0
 20
535.0
 30
0.0
 40
47.5
  1
Naziv crteža:
  7
20
 11
5825.0
 21
535.0
 31
0.0
100
AcDbText
  0
TEXT
  5
D0
330
17
100
AcDbEntity
  8
Tekst
 62
7
100
AcDbText
 10
5825.0
 20
435.0
 30
0.0
 40
85.0
  1
DEA u postojećem kontejneru — osnova i presjek
  7
20
 11
5825.0
 21
435.0
 31
0.0
100
AcDbText
  0
TEXT
  5
D1
330
17
100
AcDbEntity
  8
Okvir
 62
8
100
AcDbText
 10
8775.0
 20
535.0
 30
0.0
 40
47.5
  1
razmjera:
  7
20
 11
8775.0
 21
535.0
 31
0.0
100
AcDbText
  0
TEXT
  5
D2
330
17
100
AcDbEntity
  8
Tekst
 62
7
100
AcDbText
 10
8775.0
 20
435.0
 30
0.0
 40
85.0
  1
1:25
  7
20
 11
8775.0
 21
435.0
 31
0.0
100
AcDbText
  0
TEXT
  5
D3
330
17
100
AcDbEntity
  8
Okvir
 62
8
100
AcDbText
 10
5825.0
 20
355.0
 30
0.0
 40
47.5
  1
Projektant:
  7
20
 11
5825.0
 21
355.0
 31
0.0
100
AcDbText
  0
TEXT
  5
D4
330
17
100
AcDbEntity
  8
Tekst
 62
7
100
AcDbText
 10
5825.0
 20
275.0
 30
0.0
 40
57.49999999999999
  1
Rusmir Skopljak, dipl. ing. el.
  7
20
 11
5825.0
 21
275.0
 31
0.0
100
AcDbText
  0
TEXT
  5
D5
330
17
100
AcDbEntity
  8
Okvir
 62
8
100
AcDbText
 10
7375.0
 20
355.0
 30
0.0
 40
47.5
  1
ovjerio:
  7
20
 11
7375.0
 21
355.0
 31
0.0
100
AcDbText
  0
TEXT
  5
D6
330
17
100
AcDbEntity
  8
Tekst
 62
7
100
AcDbText
 10
7375.0
 20
275.0
 30
0.0
 40
57.49999999999999
  1
Rusmir Skopljak, dipl. ing. el.
  7
20
 11
7375.0
 21
275.0
 31
0.0
100
AcDbText
  0
TEXT
  5
D7
330
17
100
AcDbEntity
  8
Okvir
 62
8
100
AcDbText
 10
8775.0
 20
355.0
 30
0.0
 40
47.5
  1
godina / broj crteža:
  7
20
 11
8775.0
 21
355.0
 31
0.0
100
AcDbText
  0
TEXT
  5
D8
330
17
100
AcDbEntity
  8
Tekst
 62
7
100
AcDbText
 10
8775.0
 20
275.0
 30
0.0
 40
70.0
  1
2026.    M-01
  7
20
 11
8775.0
 21
275.0
 31
0.0
100
AcDbText
  0
LWPOLYLINE
  5
D9
330
17
100
AcDbEntity
  8
Objekat
 62
6
370
50
100
AcDbPolyline
 90
4
 70
1
 10
1900.0
 20
3600.0
 10
4905.0
 20
3600.0
 10
4905.0
 20
5900.0
 10
1900.0
 20
5900.0
  0
LWPOLYLINE
  5
DA
330
17
100
AcDbEntity
  8
Objekat
 62
6
100
AcDbPolyline
 90
4
 70
1
 10
1960.0
 20
3660.0
 10
4845.0
 20
3660.0
 10
4845.0
 20
5840.0
 10
1960.0
 20
5840.0
  0
HATCH
  5
DB
330
17
100
AcDbEntity
  8
Objekat
 62
8
100
AcDbHatch
 10
0.0
 20
0.0
 30
0.0
210
0.0
220
0.0
230
1.0
  2
SOLID
 70
1
 71
0
 91
1
 92
3
 72
0
 73
1
 93
4
 10
1900.0
 20
3600.0
 10
4905.0
 20
3600.0
 10
4905.0
 20
3660.0
 10
1900.0
 20
3660.0
 97
0
 75
0
 76
1
 98
0
  0
HATCH
  5
DC
330
17
100
AcDbEntity
  8
Objekat
 62
8
100
AcDbHatch
 10
0.0
 20
0.0
 30
0.0
210
0.0
220
0.0
230
1.0
  2
SOLID
 70
1
 71
0
 91
1
 92
3
 72
0
 73
1
 93
4
 10
1900.0
 20
5840.0
 10
4905.0
 20
5840.0
 10
4905.0
 20
5900.0
 10
1900.0
 20
5900.0
 97
0
 75
0
 76
1
 98
0
  0
HATCH
  5
DD
330
17
100
AcDbEntity
  8
Objekat
 62
8
100
AcDbHatch
 10
0.0
 20
0.0
 30
0.0
210
0.0
220
0.0
230
1.0
  2
SOLID
 70
1
 71
0
 91
1
 92
3
 72
0
 73
1
 93
4
 10
1900.0
 20
3660.0
 10
1960.0
 20
3660.0
 10
1960.0
 20
5840.0
 10
1900.0
 20
5840.0
 97
0
 75
0
 76
1
 98
0
  0
HATCH
  5
DE
330
17
100
AcDbEntity
  8
Objekat
 62
8
100
AcDbHatch
 10
0.0
 20
0.0
 30
0.0
210
0.0
220
0.0
230
1.0
  2
SOLID
 70
1
 71
0
 91
1
 92
3
 72
0
 73
1
 93
4
 10
4845.0
 20
3660.0
 10
4905.0
 20
3660.0
 10
4905.0
 20
5840.0
 10
4845.0
 20
5840.0
 97
0
 75
0
 76
1
 98
0
  0
TEXT
  5
DF
330
17
100
AcDbEntity
  8
Tekst
 62
7
100
AcDbText
 10
1900.0
 20
6420.0
 30
0.0
 40
65.0
  1
OSNOVA  —  kontejner je PRAZAN
  7
20
 11
1900.0
 21
6420.0
 31
0.0
100
AcDbText
  0
LWPOLYLINE
  5
E0
330
17
100
AcDbEntity
  8
Konstrukcija
 62
5
370
35
100
AcDbPolyline
 90
4
 70
1
 10
2020.0
 20
4380.0
 10
3690.0
 20
4380.0
 10
3690.0
 20
5120.0
 10
2020.0
 20
5120.0
  0
LWPOLYLINE
  5
E1
330
17
100
AcDbEntity
  8
Agregat
 62
30
370
50
100
AcDbPolyline
 90
4
 70
1
 10
2080.0
 20
4440.0
 10
3630.0
 20
4440.0
 10
3630.0
 20
5060.0
 10
2080.0
 20
5060.0
  0
TEXT
  5
E2
330
17
100
AcDbEntity
  8
Tekst
 62
7
100
AcDbText
 10
2855.0
 20
4750.0
 30
0.0
 40
47.5
  1
DEA 18 kVA / 14,4 kW, skid
  7
20
 72
1
 11
2855.0
 21
4750.0
 31
0.0
100
AcDbText
 73
2
  0
LWPOLYLINE
  5
E3
330
17
100
AcDbEntity
  8
Agregat
 62
4
370
35
100
AcDbPolyline
 90
4
 70
1
 10
2080.0
 20
4440.0
 10
2260.0
 20
4440.0
 10
2260.0
 20
5060.0
 10
2080.0
 20
5060.0
  0
TEXT
  5
E4
330
17
100
AcDbEntity
  8
Tekst
 62
8
100
AcDbText
 10
2170.0
 20
5190.0
 30
0.0
 40
35.0
  1
RADIJATOR
  7
20
 72
1
 11
2170.0
 21
5190.0
 31
0.0
100
AcDbText
  0
LWPOLYLINE
  5
E5
330
17
100
AcDbEntity
  8
Ventilacija
 62
4
370
35
100
AcDbPolyline
 90
4
 70
1
 10
1960.0
 20
4450.0
 10
2080.0
 20
4450.0
 10
2080.0
 20
5050.0
 10
1960.0
 20
5050.0
  0
HATCH
  5
E6
330
17
100
AcDbEntity
  8
Ventilacija
 62
4
100
AcDbHatch
 10
0.0
 20
0.0
 30
0.0
210
0.0
220
0.0
230
1.0
  2
SOLID
 70
1
 71
0
 91
1
 92
3
 72
0
 73
1
 93
4
 10
1900.0
 20
4450.0
 10
1960.0
 20
4450.0
 10
1960.0
 20
5050.0
 10
1900.0
 20
5050.0
 97
0
 75
0
 76
1
 98
0
  0
HATCH
  5
E7
330
17
100
AcDbEntity
  8
Ventilacija
 62
4
100
AcDbHatch
 10
0.0
 20
0.0
 30
0.0
210
0.0
220
0.0
230
1.0
  2
SOLID
 70
1
 71
0
 91
1
 92
3
 72
0
 73
1
 93
4
 10
4050.0
 20
5840.0
 10
4550.0
 20
5840.0
 10
4550.0
 20
5900.0
 10
4050.0
 20
5900.0
 97
0
 75
0
 76
1
 98
0
  0
LWPOLYLINE
  5
E8
330
17
100
AcDbEntity
  8
Novi1
 62
30
370
50
100
AcDbPolyline
 90
4
 70
1
 10
2250.0
 20
5640.0
 10
3050.0
 20
5640.0
 10
3050.0
 20
5840.0
 10
2250.0
 20
5840.0
  0
TEXT
  5
E9
330
17
100
AcDbEntity
  8
Tekst
 62
7
100
AcDbText
 10
2650.0
 20
5685.0
 30
0.0
 40
40.0
  1
GRO
  7
20
 72
1
 11
2650.0
 21
5685.0
 31
0.0
100
AcDbText
  0
HATCH
  5
EA
330
17
100
AcDbEntity
  8
Novi1
 62
30
100
AcDbHatch
 10
0.0
 20
0.0
 30
0.0
210
0.0
220
0.0
230
1.0
  2
SOLID
 70
1
 71
0
 91
1
 92
3
 72
0
 73
1
 93
4
 10
3200.0
 20
5690.0
 10
3500.0
 20
5690.0
 10
3500.0
 20
5840.0
 10
3200.0
 20
5840.0
 97
0
 75
0
 76
1
 98
0
  0
LWPOLYLINE
  5
EB
330
17
100
AcDbEntity
  8
Novi1
 62
30
370
50
100
AcDbPolyline
 90
4
 70
1
 10
3200.0
 20
5690.0
 10
3500.0
 20
5690.0
 10
3500.0
 20
5840.0
 10
3200.0
 20
5840.0
  0
LWPOLYLINE
  5
EC
330
17
100
AcDbEntity
  8
Izvod
 62
8
100
AcDbPolyline
 90
3
 70
0
 10
3350.0
 20
5765.0
 10
3050.0
 20
6565.0
 10
3000.0
 20
6565.0
  0
CIRCLE
  5
ED
330
17
100
AcDbEntity
  8
Izvod
 62
8
100
AcDbCircle
 10
3350.0
 20
5765.0
 30
0.0
 40
10.0
  0
TEXT
  5
EE
330
17
100
AcDbEntity
  8
Izvod
 62
7
100
AcDbText
 10
2985.0
 20
6545.75
 30
0.0
 40
55.00000000000001
  1
DC razvod −48 V
  7
20
 72
2
 11
2985.0
 21
6545.75
 31
0.0
100
AcDbText
  0
CIRCLE
  5
EF
330
17
100
AcDbEntity
  8
Ventilacija
 62
1
100
AcDbCircle
 10
2050.0
 20
5400.0
 30
0.0
 40
60.0
  0
LWPOLYLINE
  5
F0
330
17
100
AcDbEntity
  8
Agregat
 62
1
370
35
100
AcDbPolyline
 90
4
 70
1
 10
3695.0
 20
3660.0
 10
4845.0
 20
3660.0
 10
4845.0
 20
4300.0
 10
3695.0
 20
4300.0
  0
LWPOLYLINE
  5
F1
330
17
100
AcDbEntity
  8
Agregat
 62
30
370
35
100
AcDbPolyline
 90
4
 70
1
 10
3745.0
 20
3680.0
 10
4795.0
 20
3680.0
 10
4795.0
 20
4280.0
 10
3745.0
 20
4280.0
  0
TEXT
  5
F2
330
17
100
AcDbEntity
  8
Tekst
 62
7
100
AcDbText
 10
4270.0
 20
3980.0
 30
0.0
 40
42.5
  1
spremnik 500 l
  7
20
 72
1
 11
4270.0
 21
3980.0
 31
0.0
100
AcDbText
 73
2
  0
TEXT
  5
F3
330
17
100
AcDbEntity
  8
Tekst
 62
8
100
AcDbText
 10
4270.0
 20
3750.0
 30
0.0
 40
35.0
  1
dvoplašni
  7
20
 72
1
 11
4270.0
 21
3750.0
 31
0.0
100
AcDbText
  0
CIRCLE
  5
F4
330
17
100
AcDbEntity
  8
Ventilacija
 62
1
100
AcDbCircle
 10
4700.0
 20
3630.0
 30
0.0
 40
40.0
  0
HATCH
  5
F5
330
17
100
AcDbEntity
  8
Objekat
 62
0
100
AcDbHatch
 10
0.0
 20
0.0
 30
0.0
210
0.0
220
0.0
230
1.0
  2
SOLID
 70
1
 71
0
 91
1
 92
3
 72
0
 73
1
 93
4
 10
4845.0
 20
4300.0
 10
4905.0
 20
4300.0
 10
4905.0
 20
5200.0
 10
4845.0
 20
5200.0
 97
0
 75
0
 76
1
 98
0
  0
LINE
  5
F6
330
17
100
AcDbEntity
  8
Objekat
 62
8
100
AcDbLine
 10
4905.0
 20
4300.0
 30
0.0
 11
5805.0
 21
4300.0
 31
0.0
  0
ARC
  5
F7
330
17
100
AcDbEntity
  8
Objekat
 62
8
100
AcDbCircle
 10
4905.0
 20
4300.0
 30
0.0
 40
900.0
100
AcDbArc
 50
0.0
 51
90.0
  0
HATCH
  5
F8
330
17
100
AcDbEntity
  8
Ventilacija
 62
4
100
AcDbHatch
 10
0.0
 20
0.0
 30
0.0
210
0.0
220
0.0
230
1.0
  2
SOLID
 70
1
 71
0
 91
1
 92
3
 72
0
 73
1
 93
4
 10
4845.0
 20
5350.0
 10
4905.0
 20
5350.0
 10
4905.0
 20
5665.0
 10
4845.0
 20
5665.0
 97
0
 75
0
 76
1
 98
0
  0
LWPOLYLINE
  5
F9
330
17
100
AcDbEntity
  8
Ventilacija
 62
4
370
35
100
AcDbPolyline
 90
2
 70
0
 10
4300.0
 20
6250.0
 10
4300.0
 20
5350.0
  0
SOLID
  5
FA
330
17
100
AcDbEntity
  8
Ventilacija
 62
4
100
AcDbTrace
 10
4365.241672489531
 20
5496.0942304499695
 30
0.0
 11
4300.0
 21
5350.0
 31
0.0
 12
4234.758327510469
 22
5496.0942304499695
 32
0.0
 13
4234.758327510469
 23
5496.0942304499695
 33
0.0
  0
LWPOLYLINE
  5
FB
330
17
100
AcDbEntity
  8
Ventilacija
 62
4
370
35
100
AcDbPolyline
 90
2
 70
0
 10
4200.0
 20
5150.0
 10
3830.0
 20
5000.0
  0
SOLID
  5
FC
330
17
100
AcDbEntity
  8
Ventilacija
 62
4
100
AcDbTrace
 10
3989.902889875874
 20
4994.426328916759
 30
0.0
 11
3830.0
 21
5000.0
 31
0.0
 12
3940.8796305618584
 22
5115.350368557997
 32
0.0
 13
3940.8796305618584
 23
5115.350368557997
 33
0.0
  0
LWPOLYLINE
  5
FD
330
17
100
AcDbEntity
  8
Ventilacija
 62
4
370
35
100
AcDbPolyline
 90
2
 70
0
 10
2110.0
 20
4750.0
 10
1400.0
 20
4750.0
  0
SOLID
  5
FE
330
17
100
AcDbEntity
  8
Ventilacija
 62
4
100
AcDbTrace
 10
1546.0942304499692
 20
4684.758327510469
 30
0.0
 11
1400.0
 21
4750.0
 31
0.0
 12
1546.0942304499692
 22
4815.241672489531
 32
0.0
 13
1546.0942304499692
 23
4815.241672489531
 33
0.0
  0
TEXT
  5
FF
330
17
100
AcDbEntity
  8
Tekst
 62
8
100
AcDbText
 10
2720.0
 20
3950.0
 30
0.0
 40
37.5
  1
servisni prostor 720
  7
20
 72
1
 11
2720.0
 21
3950.0
 31
0.0
100
AcDbText
  0
TEXT
  5
100
330
17
100
AcDbEntity
  8
Tekst
 62
8
100
AcDbText
 10
2720.0
 20
5290.0
 30
0.0
 40
37.5
  1
servisni prostor 720
  7
20
 72
1
 11
2720.0
 21
5290.0
 31
0.0
100
AcDbText
  0
DIMENSION
  5
101
330
17
100
AcDbEntity
  8
Kote
100
AcDbDimension
280
0
  2
*D1
  3
Standard
 10
1900.0
 20
2800.0
 30
0.0
 11
3402.5
 21
2800.0
 31
0.0
 70
32
 71
5
  1
<>
100
AcDbAlignedDimension
 13
1900.0
 23
3600.0
 33
0.0
 14
4905.0
 24
3600.0
 34
0.0
 50
0.0
100
AcDbRotatedDimension
  0
DIMENSION
  5
111
330
17
100
AcDbEntity
  8
Kote
100
AcDbDimension
280
0
  2
*D2
  3
Standard
 10
1100.0
 20
3600.0
 30
0.0
 11
1100.0
 21
4750.0
 31
0.0
 70
32
 71
5
  1
<>
100
AcDbAlignedDimension
 13
1900.0
 23
3600.0
 33
0.0
 14
1900.0
 24
5900.0
 34
0.0
 50
90.0
100
AcDbRotatedDimension
  0
DIMENSION
  5
121
330
17
100
AcDbEntity
  8
Kote
100
AcDbDimension
280
0
  2
*D3
  3
Standard
 10
4050.0
 20
6250.0
 30
0.0
 11
4300.0
 21
6250.0
 31
0.0
 70
32
 71
5
  1
<>
100
AcDbAlignedDimension
 13
4050.0
 23
5900.0
 33
0.0
 14
4550.0
 24
5900.0
 34
0.0
 50
0.0
100
AcDbRotatedDimension
  0
LWPOLYLINE
  5
131
330
17
100
AcDbEntity
  8
Izvod
 62
8
100
AcDbPolyline
 90
3
 70
0
 10
4300.0
 20
5870.0
 10
5200.0
 20
6370.0
 10
5250.0
 20
6370.0
  0
CIRCLE
  5
132
330
17
100
AcDbEntity
  8
Izvod
 62
8
100
AcDbCircle
 10
4300.0
 20
5870.0
 30
0.0
 40
10.0
  0
TEXT
  5
133
330
17
100
AcDbEntity
  8
Izvod
 62
7
100
AcDbText
 10
5265.0
 20
6350.75
 30
0.0
 40
55.00000000000001
  1
usis 500 × 700 (SI, +0,30)
  7
20
 11
5265.0
 21
6350.75
 31
0.0
100
AcDbText
  0
LWPOLYLINE
  5
134
330
17
100
AcDbEntity
  8
Izvod
 62
8
100
AcDbPolyline
 90
3
 70
0
 10
1930.0
 20
4750.0
 10
1430.0
 20
6250.0
 10
1380.0
 20
6250.0
  0
CIRCLE
  5
135
330
17
100
AcDbEntity
  8
Izvod
 62
8
100
AcDbCircle
 10
1930.0
 20
4750.0
 30
0.0
 40
10.0
  0
TEXT
  5
136
330
17
100
AcDbEntity
  8
Izvod
 62
7
100
AcDbText
 10
1365.0
 20
6230.75
 30
0.0
 40
55.00000000000001
  1
kanal + žaluzina 600 × 600 (SZ)
  7
20
 72
2
 11
1365.0
 21
6230.75
 31
0.0
100
AcDbText
  0
LWPOLYLINE
  5
137
330
17
100
AcDbEntity
  8
Izvod
 62
8
100
AcDbPolyline
 90
3
 70
0
 10
2050.0
 20
5400.0
 10
1550.0
 20
5900.0
 10
1500.0
 20
5900.0
  0
CIRCLE
  5
138
330
17
100
AcDbEntity
  8
Izvod
 62
8
100
AcDbCircle
 10
2050.0
 20
5400.0
 30
0.0
 40
10.0
  0
TEXT
  5
139
330
17
100
AcDbEntity
  8
Izvod
 62
7
100
AcDbText
 10
1485.0
 20
5880.75
 30
0.0
 40
55.00000000000001
  1
izduv DN 50 (SZ)
  7
20
 72
2
 11
1485.0
 21
5880.75
 31
0.0
100
AcDbText
  0
LWPOLYLINE
  5
13A
330
17
100
AcDbEntity
  8
Izvod
 62
8
100
AcDbPolyline
 90
3
 70
0
 10
4270.0
 20
3660.0
 10
4670.0
 20
2960.0
 10
4720.0
 20
2960.0
  0
CIRCLE
  5
13B
330
17
100
AcDbEntity
  8
Izvod
 62
8
100
AcDbCircle
 10
4270.0
 20
3660.0
 30
0.0
 40
10.0
  0
TEXT
  5
13C
330
17
100
AcDbEntity
  8
Izvod
 62
7
100
AcDbText
 10
4735.0
 20
2940.75
 30
0.0
 40
55.00000000000001
  1
korito (kada) 1150 × 640, rub 200
  7
20
 11
4735.0
 21
2940.75
 31
0.0
100
AcDbText
  0
LWPOLYLINE
  5
13D
330
17
100
AcDbEntity
  8
Izvod
 62
8
100
AcDbPolyline
 90
3
 70
0
 10
4700.0
 20
3600.0
 10
5400.0
 20
3200.0
 10
5450.0
 20
3200.0
  0
CIRCLE
  5
13E
330
17
100
AcDbEntity
  8
Izvod
 62
8
100
AcDbCircle
 10
4700.0
 20
3600.0
 30
0.0
 40
10.0
  0
TEXT
  5
13F
330
17
100
AcDbEntity
  8
Izvod
 62
7
100
AcDbText
 10
5465.0
 20
3180.75
 30
0.0
 40
55.00000000000001
  1
oduška (JZ)
  7
20
 11
5465.0
 21
3180.75
 31
0.0
100
AcDbText
  0
LWPOLYLINE
  5
140
330
17
100
AcDbEntity
  8
Izvod
 62
8
100
AcDbPolyline
 90
3
 70
0
 10
4875.0
 20
5500.0
 10
5475.0
 20
5850.0
 10
5525.0
 20
5850.0
  0
CIRCLE
  5
141
330
17
100
AcDbEntity
  8
Izvod
 62
8
100
AcDbCircle
 10
4875.0
 20
5500.0
 30
0.0
 40
10.0
  0
TEXT
  5
142
330
17
100
AcDbEntity
  8
Izvod
 62
7
100
AcDbText
 10
5540.0
 20
5830.75
 30
0.0
 40
55.00000000000001
  1
ventilator Ø315 (JI)
  7
20
 11
5540.0
 21
5830.75
 31
0.0
100
AcDbText
  0
LWPOLYLINE
  5
143
330
17
100
AcDbEntity
  8
Izvod
 62
8
100
AcDbPolyline
 90
3
 70
0
 10
2380.0
 20
4380.0
 10
1680.0
 20
3480.0
 10
1630.0
 20
3480.0
  0
CIRCLE
  5
144
330
17
100
AcDbEntity
  8
Izvod
 62
8
100
AcDbCircle
 10
2380.0
 20
4380.0
 30
0.0
 40
10.0
  0
TEXT
  5
145
330
17
100
AcDbEntity
  8
Izvod
 62
7
100
AcDbText
 10
1615.0
 20
3460.75
 30
0.0
 40
55.00000000000001
  1
roštilj za raznošenje opterećenja
  7
20
 72
2
 11
1615.0
 21
3460.75
 31
0.0
100
AcDbText
  0
TEXT
  5
146
330
17
100
AcDbEntity
  8
Orijentacija
 62
1
100
AcDbText
 10
3402.5
 20
6030.0
 30
0.0
 40
50.0
  1
S J E V E R O I S T O K
  7
20
 72
1
 11
3402.5
 21
6030.0
 31
0.0
100
AcDbText
  0
TEXT
  5
147
330
17
100
AcDbEntity
  8
Orijentacija
 62
1
100
AcDbText
 10
3402.5
 20
3300.0
 30
0.0
 40
50.0
  1
J U G O Z A P A D
  7
20
 72
1
 11
3402.5
 21
3300.0
 31
0.0
100
AcDbText
  0
TEXT
  5
148
330
17
100
AcDbEntity
  8
Orijentacija
 62
1
100
AcDbText
 10
1770.0
 20
5150.0
 30
0.0
 40
50.0
  1
S Z
  7
20
 72
2
 11
1770.0
 21
5150.0
 31
0.0
100
AcDbText
  0
TEXT
  5
149
330
17
100
AcDbEntity
  8
Orijentacija
 62
1
100
AcDbText
 10
5035.0
 20
5500.0
 30
0.0
 40
50.0
  1
J I
  7
20
 11
5035.0
 21
5500.0
 31
0.0
100
AcDbText
  0
LWPOLYLINE
  5
14A
330
17
100
AcDbEntity
  8
Objekat
 62
6
370
50
100
AcDbPolyline
 90
4
 70
1
 10
6600.0
 20
3300.0
 10
9605.0
 20
3300.0
 10
9605.0
 20
5930.0
 10
6600.0
 20
5930.0
  0
TEXT
  5
14B
330
17
100
AcDbEntity
  8
Tekst
 62
7
100
AcDbText
 10
6600.0
 20
6450.0
 30
0.0
 40
65.0
  1
PRESJEK 1–1  (pogled prema SI — SZ lijevo)
  7
20
 11
6600.0
 21
6450.0
 31
0.0
100
AcDbText
  0
LINE
  5
14C
330
17
100
AcDbEntity
  8
Objekat
 62
8
370
50
100
AcDbLine
 10
6100.0
 20
3300.0
 30
0.0
 11
10105.0
 21
3300.0
 31
0.0
  0
LWPOLYLINE
  5
14D
330
17
100
AcDbEntity
  8
Agregat
 62
30
370
50
100
AcDbPolyline
 90
4
 70
1
 10
6780.0
 20
3300.0
 10
8330.0
 20
3300.0
 10
8330.0
 20
4320.0
 10
6780.0
 20
4320.0
  0
HATCH
  5
14E
330
17
100
AcDbEntity
  8
Agregat
 62
7
100
AcDbHatch
 10
0.0
 20
0.0
 30
0.0
210
0.0
220
0.0
230
1.0
  2
ANSI31
 70
0
 71
0
 91
1
 92
3
 72
0
 73
1
 93
4
 10
6780.0
 20
3300.0
 10
8330.0
 20
3300.0
 10
8330.0
 20
4320.0
 10
6780.0
 20
4320.0
 97
0
 75
1
 76
1
 52
0.0
 41
7.5
 77
0
 78
1
 53
45.0
 43
0.0
 44
0.0
 45
-16.8379802273
 46
16.8379802273
 79
0
 98
0
  0
LWPOLYLINE
  5
14F
330
17
100
AcDbEntity
  8
Ventilacija
 62
4
370
35
100
AcDbPolyline
 90
4
 70
1
 10
6660.0
 20
3680.0
 10
6780.0
 20
3680.0
 10
6780.0
 20
4320.0
 10
6660.0
 20
4320.0
  0
HATCH
  5
150
330
17
100
AcDbEntity
  8
Ventilacija
 62
4
100
AcDbHatch
 10
0.0
 20
0.0
 30
0.0
210
0.0
220
0.0
230
1.0
  2
SOLID
 70
1
 71
0
 91
1
 92
3
 72
0
 73
1
 93
4
 10
6600.0
 20
3700.0
 10
6660.0
 20
3700.0
 10
6660.0
 20
4300.0
 10
6600.0
 20
4300.0
 97
0
 75
0
 76
1
 98
0
  0
LWPOLYLINE
  5
151
330
17
100
AcDbEntity
  8
Ventilacija
 62
4
370
35
100
AcDbPolyline
 90
2
 70
0
 10
6950.0
 20
4000.0
 10
6100.0
 20
4000.0
  0
SOLID
  5
152
330
17
100
AcDbEntity
  8
Ventilacija
 62
4
100
AcDbTrace
 10
6246.0942304499695
 20
3934.758327510469
 30
0.0
 11
6100.0
 21
4000.0
 31
0.0
 12
6246.0942304499695
 22
4065.241672489531
 32
0.0
 13
6246.0942304499695
 23
4065.241672489531
 33
0.0
  0
LWPOLYLINE
  5
153
330
17
100
AcDbEntity
  8
Ventilacija
 62
1
370
70
100
AcDbPolyline
 90
4
 70
0
 10
7700.0
 20
4320.0
 10
7700.0
 20
4900.0
 10
6860.0
 20
4900.0
 10
6860.0
 20
6310.0
  0
LWPOLYLINE
  5
154
330
17
100
AcDbEntity
  8
Ventilacija
 62
1
370
35
100
AcDbPolyline
 90
4
 70
1
 10
7080.0
 20
4770.0
 10
7480.0
 20
4770.0
 10
7480.0
 20
5030.0
 10
7080.0
 20
5030.0
  0
TEXT
  5
155
330
17
100
AcDbEntity
  8
Tekst
 62
8
100
AcDbText
 10
7520.0
 20
4840.0
 30
0.0
 40
37.5
  1
prigušivač
  7
20
 11
7520.0
 21
4840.0
 31
0.0
100
AcDbText
  0
TEXT
  5
156
330
17
100
AcDbEntity
  8
Tekst
 62
8
100
AcDbText
 10
7000.0
 20
6130.0
 30
0.0
 40
37.5
  1
izduv iznad krova
  7
20
 11
7000.0
 21
6130.0
 31
0.0
100
AcDbText
  0
LWPOLYLINE
  5
157
330
17
100
AcDbEntity
  8
Ventilacija
 62
4
370
35
100
AcDbPolyline
 90
4
 70
1
 10
8750.0
 20
3600.0
 10
9250.0
 20
3600.0
 10
9250.0
 20
4300.0
 10
8750.0
 20
4300.0
  0
TEXT
  5
158
330
17
100
AcDbEntity
  8
Tekst
 62
8
100
AcDbText
 10
8400.0
 20
4420.0
 30
0.0
 40
37.5
  1
usis 500 × 700 (SI, +0,30)
  7
20
 72
2
 11
8400.0
 21
4420.0
 31
0.0
100
AcDbText
  0
LWPOLYLINE
  5
159
330
17
100
AcDbEntity
  8
Sakriveno
 62
8
100
AcDbPolyline
 90
4
 70
1
 10
8445.0
 20
3300.0
 10
9495.0
 20
3300.0
 10
9495.0
 20
4610.0
 10
8445.0
 20
4610.0
  0
TEXT
  5
15A
330
17
100
AcDbEntity
  8
Tekst
 62
8
100
AcDbText
 10
8445.0
 20
4720.0
 30
0.0
 40
37.5
  1
spremnik ispred presjeka
  7
20
 11
8445.0
 21
4720.0
 31
0.0
100
AcDbText
  0
HATCH
  5
15B
330
17
100
AcDbEntity
  8
Ventilacija
 62
4
100
AcDbHatch
 10
0.0
 20
0.0
 30
0.0
210
0.0
220
0.0
230
1.0
  2
SOLID
 70
1
 71
0
 91
1
 92
3
 72
0
 73
1
 93
4
 10
9545.0
 20
5050.0
 10
9605.0
 20
5050.0
 10
9605.0
 20
5365.0
 10
9545.0
 20
5365.0
 97
0
 75
0
 76
1
 98
0
  0
TEXT
  5
15C
330
17
100
AcDbEntity
  8
Tekst
 62
8
100
AcDbText
 10
8905.0
 20
5430.0
 30
0.0
 40
37.5
  1
ventilator
  7
20
 11
8905.0
 21
5430.0
 31
0.0
100
AcDbText
  0
DIMENSION
  5
15D
330
17
100
AcDbEntity
  8
Kote
100
AcDbDimension
280
0
  2
*D4
  3
Standard
 10
5900.0
 20
3300.0
 30
0.0
 11
5900.0
 21
4615.0
 31
0.0
 70
32
 71
5
  1
<>
100
AcDbAlignedDimension
 13
6600.0
 23
3300.0
 33
0.0
 14
6600.0
 24
5930.0
 34
0.0
 50
90.0
100
AcDbRotatedDimension
  0
TEXT
  5
16D
330
17
100
AcDbEntity
  8
Tekst
 62
7
100
AcDbText
 10
700.0
 20
2400.0
 30
0.0
 40
65.0
  1
NAPOMENE:
  7
20
 11
700.0
 21
2400.0
 31
0.0
100
AcDbText
  0
TEXT
  5
16E
330
17
100
AcDbEntity
  8
Tekst
 62
7
100
AcDbText
 10
700.0
 20
2340.0
 30
0.0
 40
52.5
  1
1  Agregat FG Wilson P18-6 (Skid) ili ekvivalent, 18 kVA / 14,4 kW.
  7
20
 11
700.0
 21
2340.0
 31
0.0
100
AcDbText
  0
TEXT
  5
16F
330
17
100
AcDbEntity
  8
Tekst
 62
7
100
AcDbText
 10
700.0
 20
2263.875
 30
0.0
 40
52.5
  1
2  RASPORED (obavezujući): usis 500 × 700 SI (+0,30); kanal i žaluzina 600 × 600
  7
20
 11
700.0
 21
2263.875
 31
0.0
100
AcDbText
  0
TEXT
  5
170
330
17
100
AcDbEntity
  8
Tekst
 62
7
100
AcDbText
 10
700.0
 20
2187.75
 30
0.0
 40
52.5
  1
    te izduv DN 50 SZ; oduška JZ; ventilator JI. ≥3 m između usisa, izduva i oduške.
  7
20
 11
700.0
 21
2187.75
 31
0.0
100
AcDbText
  0
TEXT
  5
171
330
17
100
AcDbEntity
  8
Tekst
 62
7
100
AcDbText
 10
700.0
 20
2111.625
 30
0.0
 40
52.5
  1
3  Roštilj za raznošenje opterećenja OBAVEZAN ispod skida i ispod korita.
  7
20
 11
700.0
 21
2111.625
 31
0.0
100
AcDbText
  0
TEXT
  5
172
330
17
100
AcDbEntity
  8
Tekst
 62
7
100
AcDbText
 10
700.0
 20
2035.5
 30
0.0
 40
52.5
  1
4  Spremnik je DVOPLAŠNI; ispod njega korito (kada) 1150 × 640, rub 200 mm.
  7
20
 11
700.0
 21
2035.5
 31
0.0
100
AcDbText
  0
TEXT
  5
173
330
17
100
AcDbEntity
  8
Tekst
 62
7
100
AcDbText
 10
700.0
 20
1959.375
 30
0.0
 40
52.5
  1
5  SERVISNI PROSTOR (obavezujući): 720 mm JZ, 720 mm SI, 1155 mm JI —
  7
20
 11
700.0
 21
1959.375
 31
0.0
100
AcDbText
  0
TEXT
  5
174
330
17
100
AcDbEntity
  8
Tekst
 62
7
100
AcDbText
 10
700.0
 20
1883.25
 30
0.0
 40
52.5
  1
    ne zauzimati opremom ni skladištenjem.
  7
20
 11
700.0
 21
1883.25
 31
0.0
100
AcDbText
  0
TEXT
  5
175
330
17
100
AcDbEntity
  8
Tekst
 62
7
100
AcDbText
 10
700.0
 20
1807.125
 30
0.0
 40
52.5
  1
6  Unos skida 620 mm kroz vrata 900 mm. Kontejner je PRAZAN.
  7
20
 11
700.0
 21
1807.125
 31
0.0
100
AcDbText
  0
TEXT
  5
176
330
17
100
AcDbEntity
  8
Tekst
 62
7
100
AcDbText
 10
700.0
 20
1731.0
 30
0.0
 40
52.5
  1
7  DC razvod −48 V (≈300 × 200 × 150) na SI zidu uz GRO: trajni potrošači D1–D6 (E-01).
  7
20
 11
700.0
 21
1731.0
 31
0.0
100
AcDbText
  0
ENDSEC
  0
SECTION
  2
OBJECTS
  0
DICTIONARY
  5
A
330
0
100
AcDbDictionary
281
1
  3
ACAD_COLOR
350
B
  3
ACAD_GROUP
350
C
  3
ACAD_LAYOUT
350
D
  3
ACAD_MATERIAL
350
E
  3
ACAD_MLEADERSTYLE
350
F
  3
ACAD_MLINESTYLE
350
10
  3
ACAD_PLOTSETTINGS
350
11
  3
ACAD_PLOTSTYLENAME
350
12
  3
ACAD_SCALELIST
350
14
  3
ACAD_TABLESTYLE
350
15
  3
ACAD_VISUALSTYLE
350
16
  3
EZDXF_META
350
2D
  0
DICTIONARY
  5
B
330
A
100
AcDbDictionary
281
1
  0
DICTIONARY
  5
C
330
A
100
AcDbDictionary
281
1
  0
DICTIONARY
  5
D
330
A
100
AcDbDictionary
281
1
  3
Model
350
1A
  3
Layout1
350
1E
  0
DICTIONARY
  5
E
330
A
100
AcDbDictionary
281
1
  3
ByBlock
350
1F
  3
ByLayer
350
20
  3
Global
350
21
  0
DICTIONARY
  5
F
330
A
100
AcDbDictionary
281
1
  3
Standard
350
2C
  0
DICTIONARY
  5
10
330
A
100
AcDbDictionary
281
1
  3
Standard
350
22
  0
DICTIONARY
  5
11
330
A
100
AcDbDictionary
281
1
  0
ACDBDICTIONARYWDFLT
  5
12
330
A
100
AcDbDictionary
281
1
  3
Normal
350
13
100
AcDbDictionaryWithDefault
340
13
  0
ACDBPLACEHOLDER
  5
13
330
12
  0
DICTIONARY
  5
14
330
A
100
AcDbDictionary
281
1
  0
DICTIONARY
  5
15
330
A
100
AcDbDictionary
281
1
  0
DICTIONARY
  5
16
330
A
100
AcDbDictionary
281
1
  3
2dWireframe
350
5A
  3
Basic
350
5B
  3
Brighten
350
5C
  3
ColorChange
350
5D
  3
Conceptual
350
5E
  3
Dim
350
5F
  3
EdgeColorOff
350
60
  3
Facepattern
350
61
  3
Flat
350
62
  3
FlatWithEdges
350
63
  3
Gouraud
350
64
  3
GouraudWithEdges
350
65
  3
Hidden
350
66
  3
JitterOff
350
67
  3
Linepattern
350
68
  3
Modeling
350
69
  3
OverhangOff
350
6A
  3
Realistic
350
6B
  3
Shaded
350
6C
  3
Shaded with edges
350
6D
  3
Shades of Gray
350
6E
  3
Sketchy
350
6F
  3
Thicken
350
70
  3
Wireframe
350
71
  3
X-Ray
350
72
  0
LAYOUT
  5
1A
330
D
100
AcDbPlotSettings
  1

  4
A3
  6

 40
7.5
 41
20.0
 42
7.5
 43
20.0
 44
420.0
 45
297.0
 46
0.0
 47
0.0
 48
0.0
 49
0.0
140
0.0
141
0.0
142
1.0
143
1.0
 70
1024
 72
1
 73
0
 74
5
  7

 75
16
 76
0
 77
2
 78
300
147
1.0
148
0.0
149
0.0
100
AcDbLayout
  1
Model
 70
1
 71
0
 10
0.0
 20
0.0
 11
420.0
 21
297.0
 12
0.0
 22
0.0
 32
0.0
 14
1e+20
 24
1e+20
 34
1e+20
 15
-1e+20
 25
-1e+20
 35
-1e+20
146
0.0
 13
0.0
 23
0.0
 33
0.0
 16
1.0
 26
0.0
 36
0.0
 17
0.0
 27
1.0
 37
0.0
 76
1
330
17
  0
LAYOUT
  5
1E
330
D
100
AcDbPlotSettings
  1

  4
A3
  6

 40
7.5
 41
20.0
 42
7.5
 43
20.0
 44
420.0
 45
297.0
 46
0.0
 47
0.0
 48
0.0
 49
0.0
140
0.0
141
0.0
142
1.0
143
1.0
 70
0
 72
1
 73
0
 74
5
  7

 75
16
 76
0
 77
2
 78
300
147
1.0
148
0.0
149
0.0
100
AcDbLayout
  1
Layout1
 70
1
 71
1
 10
0.0
 20
0.0
 11
420.0
 21
297.0
 12
0.0
 22
0.0
 32
0.0
 14
1e+20
 24
1e+20
 34
1e+20
 15
-1e+20
 25
-1e+20
 35
-1e+20
146
0.0
 13
0.0
 23
0.0
 33
0.0
 16
1.0
 26
0.0
 36
0.0
 17
0.0
 27
1.0
 37
0.0
 76
1
330
1B
  0
MATERIAL
  5
1F
102
{ACAD_REACTORS
330
E
102
}
330
E
100
AcDbMaterial
  1
ByBlock
  2

 70
0
 40
1.0
 71
1
 41
1.0
 91
-1023410177
 42
1.0
 72
1
  3

 73
1
 74
1
 75
1
 44
0.5
 73
0
 45
1.0
 46
1.0
 77
1
  4

 78
1
 79
1
170
1
 48
1.0
171
1
  6

172
1
173
1
174
1
140
1.0
141
1.0
175
1
  7

176
1
177
1
178
1
143
1.0
179
1
  8

270
1
271
1
272
1
145
1.0
146
1.0
273
1
  9

274
1
275
1
276
1
 42
1.0
 72
1
  3

 73
1
 74
1
 75
1
 94
63
  0
MATERIAL
  5
20
102
{ACAD_REACTORS
330
E
102
}
330
E
100
AcDbMaterial
  1
ByLayer
  2

 70
0
 40
1.0
 71
1
 41
1.0
 91
-1023410177
 42
1.0
 72
1
  3

 73
1
 74
1
 75
1
 44
0.5
 73
0
 45
1.0
 46
1.0
 77
1
  4

 78
1
 79
1
170
1
 48
1.0
171
1
  6

172
1
173
1
174
1
140
1.0
141
1.0
175
1
  7

176
1
177
1
178
1
143
1.0
179
1
  8

270
1
271
1
272
1
145
1.0
146
1.0
273
1
  9

274
1
275
1
276
1
 42
1.0
 72
1
  3

 73
1
 74
1
 75
1
 94
63
  0
MATERIAL
  5
21
102
{ACAD_REACTORS
330
E
102
}
330
E
100
AcDbMaterial
  1
Global
  2

 70
0
 40
1.0
 71
1
 41
1.0
 91
-1023410177
 42
1.0
 72
1
  3

 73
1
 74
1
 75
1
 44
0.5
 73
0
 45
1.0
 46
1.0
 77
1
  4

 78
1
 79
1
170
1
 48
1.0
171
1
  6

172
1
173
1
174
1
140
1.0
141
1.0
175
1
  7

176
1
177
1
178
1
143
1.0
179
1
  8

270
1
271
1
272
1
145
1.0
146
1.0
273
1
  9

274
1
275
1
276
1
 42
1.0
 72
1
  3

 73
1
 74
1
 75
1
 94
63
  0
MLINESTYLE
  5
22
102
{ACAD_REACTORS
330
10
102
}
330
10
100
AcDbMlineStyle
  2
Standard
 70
0
  3

 62
256
 51
90.0
 52
90.0
 71
2
 49
0.5
 62
256
  6
BYLAYER
 49
-0.5
 62
256
  6
BYLAYER
  0
MLEADERSTYLE
  5
2C
102
{ACAD_REACTORS
330
F
102
}
330
F
100
AcDbMLeaderStyle
179
2
170
2
171
1
172
0
 90
2
 40
0.0
 41
0.0
173
1
 91
-1056964608
 92
-2
290
1
 42
2.0
291
1
 43
8.0
  3
Standard
 44
4.0
300

342
29
174
1
175
1
176
0
178
1
 93
-1056964608
 45
4.0
292
0
297
0
 46
4.0
 94
-1056964608
 47
1.0
 49
1.0
140
1.0
294
1
141
0.0
177
0
142
1.0
295
0
296
0
143
3.75
271
0
272
9
273
9
  0
DICTIONARY
  5
2D
330
A
100
AcDbDictionary
280
1
281
1
  3
CREATED_BY_EZDXF
350
2E
  3
WRITTEN_BY_EZDXF
350
179
  0
DICTIONARYVAR
  5
2E
330
2D
100
DictionaryVariables
280
0
  1
1.4.4 @ 2026-09-11T20:45:57.058001+00:00
  0
VISUALSTYLE
  5
5A
102
{ACAD_REACTORS
330
16
102
}
330
16
100
AcDbVisualStyle
  2
2dWireframe
 70
4
 90
0
 40
0.6
 62
7
290
0
291
0
  0
VISUALSTYLE
  5
5B
102
{ACAD_REACTORS
330
16
102
}
330
16
100
AcDbVisualStyle
  2
Basic
 70
7
 90
1
 40
0.6
 62
7
290
0
291
1
  0
VISUALSTYLE
  5
5C
102
{ACAD_REACTORS
330
16
102
}
330
16
100
AcDbVisualStyle
  2
Brighten
 70
12
 90
2
 40
0.6
 62
7
290
0
291
1
  0
VISUALSTYLE
  5
5D
102
{ACAD_REACTORS
330
16
102
}
330
16
100
AcDbVisualStyle
  2
ColorChange
 70
16
 90
2
 40
0.6
 62
8
290
0
291
1
  0
VISUALSTYLE
  5
5E
102
{ACAD_REACTORS
330
16
102
}
330
16
100
AcDbVisualStyle
  2
Conceptual
 70
9
 90
3
 40
0.6
 62
7
290
0
291
0
  0
VISUALSTYLE
  5
5F
102
{ACAD_REACTORS
330
16
102
}
330
16
100
AcDbVisualStyle
  2
Dim
 70
11
 90
2
 40
0.6
 62
7
290
0
291
1
  0
VISUALSTYLE
  5
60
102
{ACAD_REACTORS
330
16
102
}
330
16
100
AcDbVisualStyle
  2
EdgeColorOff
 70
22
 90
2
 40
0.6
 62
7
290
0
291
1
  0
VISUALSTYLE
  5
61
102
{ACAD_REACTORS
330
16
102
}
330
16
100
AcDbVisualStyle
  2
Facepattern
 70
15
 90
2
 40
0.6
 62
7
290
0
291
1
  0
VISUALSTYLE
  5
62
102
{ACAD_REACTORS
330
16
102
}
330
16
100
AcDbVisualStyle
  2
Flat
 70
0
 90
2
 40
0.6
 62
7
290
0
291
1
  0
VISUALSTYLE
  5
63
102
{ACAD_REACTORS
330
16
102
}
330
16
100
AcDbVisualStyle
  2
FlatWithEdges
 70
1
 90
2
 40
0.6
 62
7
290
0
291
1
  0
VISUALSTYLE
  5
64
102
{ACAD_REACTORS
330
16
102
}
330
16
100
AcDbVisualStyle
  2
Gouraud
 70
2
 90
2
 40
0.6
 62
7
290
0
291
1
  0
VISUALSTYLE
  5
65
102
{ACAD_REACTORS
330
16
102
}
330
16
100
AcDbVisualStyle
  2
GouraudWithEdges
 70
3
 90
2
 40
0.6
 62
7
290
0
291
1
  0
VISUALSTYLE
  5
66
102
{ACAD_REACTORS
330
16
102
}
330
16
100
AcDbVisualStyle
  2
Hidden
 70
6
 90
1
 40
0.6
 62
7
290
0
291
0
  0
VISUALSTYLE
  5
67
102
{ACAD_REACTORS
330
16
102
}
330
16
100
AcDbVisualStyle
  2
JitterOff
 70
20
 90
2
 40
0.6
 62
7
290
0
291
1
  0
VISUALSTYLE
  5
68
102
{ACAD_REACTORS
330
16
102
}
330
16
100
AcDbVisualStyle
  2
Linepattern
 70
14
 90
2
 40
0.6
 62
7
290
0
291
1
  0
VISUALSTYLE
  5
69
102
{ACAD_REACTORS
330
16
102
}
330
16
100
AcDbVisualStyle
  2
Modeling
 70
10
 90
2
 40
0.6
 62
7
290
0
291
0
  0
VISUALSTYLE
  5
6A
102
{ACAD_REACTORS
330
16
102
}
330
16
100
AcDbVisualStyle
  2
OverhangOff
 70
21
 90
2
 40
0.6
 62
7
290
0
291
1
  0
VISUALSTYLE
  5
6B
102
{ACAD_REACTORS
330
16
102
}
330
16
100
AcDbVisualStyle
  2
Realistic
 70
8
 90
2
 40
0.6
 62
7
290
0
291
0
  0
VISUALSTYLE
  5
6C
102
{ACAD_REACTORS
330
16
102
}
330
16
100
AcDbVisualStyle
  2
Shaded
 70
27
 90
2
 40
0.6
 62
7
290
0
291
0
  0
VISUALSTYLE
  5
6D
102
{ACAD_REACTORS
330
16
102
}
330
16
100
AcDbVisualStyle
  2
Shaded with edges
 70
26
 90
2
 40
0.6
 62
7
290
0
291
0
  0
VISUALSTYLE
  5
6E
102
{ACAD_REACTORS
330
16
102
}
330
16
100
AcDbVisualStyle
  2
Shades of Gray
 70
23
 90
2
 40
0.6
 62
7
290
0
291
0
  0
VISUALSTYLE
  5
6F
102
{ACAD_REACTORS
330
16
102
}
330
16
100
AcDbVisualStyle
  2
Sketchy
 70
24
 90
1
 40
0.6
 62
7
290
0
291
0
  0
VISUALSTYLE
  5
70
102
{ACAD_REACTORS
330
16
102
}
330
16
100
AcDbVisualStyle
  2
Thicken
 70
13
 90
2
 40
0.6
 62
7
290
0
291
1
  0
VISUALSTYLE
  5
71
102
{ACAD_REACTORS
330
16
102
}
330
16
100
AcDbVisualStyle
  2
Wireframe
 70
5
 90
0
 40
0.6
 62
7
290
0
291
0
  0
VISUALSTYLE
  5
72
102
{ACAD_REACTORS
330
16
102
}
330
16
100
AcDbVisualStyle
  2
X-Ray
 70
25
 90
2
 40
0.5
 62
7
290
0
291
0
  0
DICTIONARYVAR
  5
179
330
2D
100
DictionaryVariables
280
0
  1
1.4.4 @ 2026-09-11T20:45:57.072516+00:00
  0
ENDSEC
  0
EOF
